<svg id="コンポーネント_22_1" data-name="コンポーネント 22 – 1" xmlns="http://www.w3.org/2000/svg" xmlns:xlink="http://www.w3.org/1999/xlink" width="232.815" height="230.364" viewBox="0 0 232.815 230.364">
  <defs>
    <clipPath id="clip-path">
      <rect x="116" y="-5" width="232.815" height="230.364" fill="none"/>
    </clipPath>
    <clipPath id="clip-path-2">
      <rect id="長方形_2076" data-name="長方形 2076" width="467.815" height="241.559" fill="none"/>
    </clipPath>
    <clipPath id="clip-path-3">
      <rect id="長方形_2078" data-name="長方形 2078" width="212.419" height="217.071" fill="none"/>
    </clipPath>
  </defs>
  <g id="スクロールグループ_11" data-name="スクロールグループ 11" transform="translate(-116 5)" clip-path="url(#clip-path)" style="isolation: isolate">
    <g id="グループ_1754" data-name="グループ 1754" transform="translate(-1399 -1262)">
      <g id="グループ_1749" data-name="グループ 1749" transform="translate(29 218)">
        <g id="グループ_1738" data-name="グループ 1738" transform="translate(1370 1051.805)">
          <g id="グループ_1753" data-name="グループ 1753">
            <path id="パス_1839" data-name="パス 1839" d="M50.16-88.44A40.99,40.99,0,0,1,67.08-84.9,43.637,43.637,0,0,1,81-75.06a46.88,46.88,0,0,1,9.42,14.58,45.747,45.747,0,0,1,3.42,17.64,46.058,46.058,0,0,1-3.42,17.76A46.879,46.879,0,0,1,81-10.5,43.637,43.637,0,0,1,67.08-.66,40.99,40.99,0,0,1,50.16,2.88,40.99,40.99,0,0,1,33.24-.66,43.637,43.637,0,0,1,19.32-10.5,46.879,46.879,0,0,1,9.9-25.08,46.058,46.058,0,0,1,6.48-42.84,45.747,45.747,0,0,1,9.9-60.48a46.879,46.879,0,0,1,9.42-14.58A43.637,43.637,0,0,1,33.24-84.9,40.99,40.99,0,0,1,50.16-88.44Zm0,80.4a31.423,31.423,0,0,0,16.8-4.5A32.224,32.224,0,0,0,78.54-24.9,37.044,37.044,0,0,0,82.8-42.84a36.7,36.7,0,0,0-4.26-17.88A32.188,32.188,0,0,0,66.9-73.02a31.509,31.509,0,0,0-16.74-4.5,31.733,31.733,0,0,0-16.86,4.5A32.074,32.074,0,0,0,21.66-60.66,36.791,36.791,0,0,0,17.4-42.84a37.139,37.139,0,0,0,4.26,17.88,31.82,31.82,0,0,0,11.7,12.42A31.82,31.82,0,0,0,50.16-8.04Z" transform="translate(142.26 164.455)" fill="#0080ff"/>
          </g>
          <g id="グループ_1751" data-name="グループ 1751">
            <path id="パス_1838" data-name="パス 1838" d="M44.25-9.9a6.34,6.34,0,0,1,5.175,1.725A6.588,6.588,0,0,1,51.6-3.15,6.357,6.357,0,0,1,49.425,1.8,6.939,6.939,0,0,1,44.25,3.6q-4.2-.45-7.8-.675T29.4,2.7a125.914,125.914,0,0,0-13.95.9,6.939,6.939,0,0,1-5.175-1.8A6.357,6.357,0,0,1,8.1-3.15a6.588,6.588,0,0,1,2.175-5.025A6.34,6.34,0,0,1,15.45-9.9q1.5.15,3.15.3l3.3.3h.3q1.05,0,1.05-1.2V-96.45q0-1.2-1.05-1.2-1.8,0-3.45.15t-3.3.45a6.939,6.939,0,0,1-5.175-1.8A6.357,6.357,0,0,1,8.1-103.8a6.588,6.588,0,0,1,2.175-5.025,6.34,6.34,0,0,1,5.175-1.725q4.35.45,7.875.675t6.975.225a128.919,128.919,0,0,0,13.95-.9,6.34,6.34,0,0,1,5.175,1.725A6.588,6.588,0,0,1,51.6-103.8a6.357,6.357,0,0,1-2.175,4.95,6.939,6.939,0,0,1-5.175,1.8,20.5,20.5,0,0,0-3-.375q-1.5-.075-3.15-.225h-.3q-1.05,0-1.05,1.2V-10.5a1.061,1.061,0,0,0,1.2,1.2,23.341,23.341,0,0,0,3.15-.225Q42.75-9.75,44.25-9.9Z" transform="translate(257.928 156.195)" fill="#0000c4"/>
          </g>
          <g id="グループ_1752" data-name="グループ 1752">
            <path id="パス_1840" data-name="パス 1840" d="M84.84-23.52A6.156,6.156,0,0,1,87-18.72a5.36,5.36,0,0,1-.96,3.24A43.347,43.347,0,0,1,70.56-1.92,41.845,41.845,0,0,1,51,2.88,40.99,40.99,0,0,1,34.08-.66,43.637,43.637,0,0,1,20.16-10.5a46.879,46.879,0,0,1-9.42-14.58A46.058,46.058,0,0,1,7.32-42.84,46.778,46.778,0,0,1,10.68-60.6a45.3,45.3,0,0,1,9.36-14.52A44.093,44.093,0,0,1,33.96-84.9,41.277,41.277,0,0,1,51-88.44q17.04,0,28.68,11.16,6.48,5.88,6.48,11.52a8,8,0,0,1-2.4,5.88A7.856,7.856,0,0,1,78-57.48,7.567,7.567,0,0,1,72.12-60a8.2,8.2,0,0,1-2.28-5.64,7.553,7.553,0,0,1,1.08-3.96,1.075,1.075,0,0,0-.12-1.56Q63.84-78.12,51-78.12A31.191,31.191,0,0,0,34.2-73.5,33.045,33.045,0,0,0,22.44-60.9a37.32,37.32,0,0,0-4.32,18.06,36.379,36.379,0,0,0,4.32,17.82A32.824,32.824,0,0,0,34.2-12.6,31.5,31.5,0,0,0,51-8.04a32.523,32.523,0,0,0,15.36-3.72A30.744,30.744,0,0,0,77.88-22.2a4.518,4.518,0,0,1,4.08-2.4A4.157,4.157,0,0,1,84.84-23.52Z" transform="translate(189.769 189.121)" fill="#0080ff"/>
          </g>
          <g id="グループ_1747" data-name="グループ 1747">
            <g id="グループ_1746" data-name="グループ 1746">
              <g id="グループ_1750" data-name="グループ 1750">
                <path id="パス_1837" data-name="パス 1837" d="M79.3-75.14a5.411,5.411,0,0,1-1.56,4.42,5.965,5.965,0,0,1-4.55,1.95,5.913,5.913,0,0,1-4.355-1.755A5.759,5.759,0,0,1,67.08-74.75a33.7,33.7,0,0,1,.2-3.445q.195-1.885.325-3.705a1.034,1.034,0,0,0-1.17-1.17H30.16a1.034,1.034,0,0,0-1.17,1.17v26.78a1.034,1.034,0,0,0,1.17,1.17H62.01a5.5,5.5,0,0,1,4.03,1.69,5.5,5.5,0,0,1,1.69,4.03,5.291,5.291,0,0,1-1.69,3.965,5.613,5.613,0,0,1-4.03,1.625H30.16a1.034,1.034,0,0,0-1.17,1.17V-9.1q0,1.04.91,1.04a32.352,32.352,0,0,0,3.575-.195q1.755-.2,3.445-.325a5.5,5.5,0,0,1,4.485,1.495A5.709,5.709,0,0,1,43.29-2.73a5.51,5.51,0,0,1-1.885,4.29A6.014,6.014,0,0,1,36.92,3.12q-3.64-.39-6.435-.585t-5.4-.195q-2.47,0-5.265.195T13.26,3.12A5.839,5.839,0,0,1,8.905,1.56,5.51,5.51,0,0,1,7.02-2.73,5.709,5.709,0,0,1,8.905-7.085,5.319,5.319,0,0,1,13.26-8.58l2.86.26h.26q.91,0,.91-1.04V-82.94q0-1.17-1.04-1.17a6.411,6.411,0,0,0-1.56.195A6.956,6.956,0,0,1,13-83.72a5.759,5.759,0,0,1-4.225-1.755A5.759,5.759,0,0,1,7.02-89.7a5.682,5.682,0,0,1,2.015-4.485,6.058,6.058,0,0,1,4.745-1.5q2.6.39,5.33.715a45.076,45.076,0,0,0,5.33.325H69.68a8.583,8.583,0,0,1,6.11,2.47,8.537,8.537,0,0,1,2.73,6.11Z" transform="translate(184.747 114.4)" fill="#0000c4"/>
              </g>
              <g id="グループ_1744" data-name="グループ 1744">
                <rect id="長方形_2077" data-name="長方形 2077" width="467.815" height="241.559" fill="none"/>
              </g>
            </g>
          </g>
        </g>
        <g id="グループ_1740" data-name="グループ 1740" transform="translate(1497.698 1044)">
          <g id="グループ_1739" data-name="グループ 1739" clip-path="url(#clip-path-3)">
            <path id="パス_1795" data-name="パス 1795" d="M2.9,89.941q.231-.015.37.353a1.9,1.9,0,0,1,.082.882A1.782,1.782,0,0,1,3.085,92c-.142.207-.287.294-.436.258-.287-.078-.573-.155-.859-.234-.071-.009-.114.054-.127.188q-.181,1.83-.31,3.7c-.011.153.021.233.093.239l6.713.576c.064.006.1-.047.106-.159.014-.191.021-.378.022-.562s.005-.355.009-.514a1.6,1.6,0,0,1,.2-.79c.126-.209.269-.3.428-.287s.269.141.354.371a1.794,1.794,0,0,1,.079.811c-.059.452-.1.809-.126,1.068s-.046.476-.061.65-.028.364-.04.57c-.013.223-.022.421-.028.6s-.01.388-.014.636,0,.605,0,1.072a1.891,1.891,0,0,1-.173.8c-.112.229-.243.342-.4.336s-.29-.13-.39-.37a1.7,1.7,0,0,1-.109-.824q.021-.242.045-.51l.048-.531c0-.017,0-.033,0-.049.006-.113-.023-.172-.087-.176l-6.721-.429c-.072,0-.113.071-.12.228q-.09,1.9-.127,3.848c0,.142.032.213.1.215l.878-.112c.153-.031.287.078.4.323a2.1,2.1,0,0,1,.168.919,2.025,2.025,0,0,1-.185.906c-.121.237-.256.348-.408.33-.184-.036-.384-.071-.6-.107s-.432-.062-.648-.081c-.224-.036-.412-.229-.562-.579A3.064,3.064,0,0,1,0,103.076Q.086,97.116.672,91.5a2.7,2.7,0,0,1,.351-1.126c.189-.313.4-.459.62-.443l.654,0c.218,0,.42,0,.6.014" fill="blue"/>
            <path id="パス_1796" data-name="パス 1796" d="M1.726,83.746Q2,82.14,2.312,80.564A14.75,14.75,0,0,1,3.87,76.13,6.777,6.777,0,0,1,6.149,73.6a2.916,2.916,0,0,1,2.52-.328A3.487,3.487,0,0,1,10.693,75a7.25,7.25,0,0,1,.763,3.225,19.834,19.834,0,0,1-.45,4.544q-.285,1.443-.533,2.915-.07.421-.111.861t-.065.849a1.754,1.754,0,0,1-.257.794c-.141.213-.3.306-.471.276s-.3-.176-.376-.437a1.655,1.655,0,0,1-.009-.84l.138-.578.007-.045c.019-.12,0-.186-.065-.2L2.607,85.067c-.071-.013-.119.06-.145.221,0,.131-.013.266-.026.4s-.029.265-.045.377a1.8,1.8,0,0,1-.277.761c-.138.2-.281.289-.432.263q-.261-.045-.371-.467a1.9,1.9,0,0,1,0-.906q.1-.486.216-.989c.078-.336.145-.663.2-.986m7.784.581c.071.015.118-.043.142-.177q.148-.821.309-1.633.142-.725.257-1.612a13.951,13.951,0,0,0,.118-1.779,7.142,7.142,0,0,0-.191-1.693,3.535,3.535,0,0,0-.667-1.4,2.645,2.645,0,0,0-1.33-.86,2.328,2.328,0,0,0-1.237-.023,3.045,3.045,0,0,0-1.332.778A6.106,6.106,0,0,0,4.32,77.744a12.745,12.745,0,0,0-.964,3.068Q3.17,81.749,3,82.7c-.026.143,0,.221.068.236L9.51,84.327" fill="blue"/>
            <path id="パス_1797" data-name="パス 1797" d="M10.209,56.086a1.4,1.4,0,0,1,.451-.617.459.459,0,0,1,.5-.1.475.475,0,0,1,.221.435,1.443,1.443,0,0,1-.16.7c-.05.106-.108.218-.173.339s-.134.245-.2.374l-.018.039c-.043.092-.036.153.023.182L15,59.528a2.928,2.928,0,0,1,1.377,1.4,4.339,4.339,0,0,1,.348,2.174,9.261,9.261,0,0,1-.682,2.752,9.258,9.258,0,0,1-1.382,2.475,4.113,4.113,0,0,1-1.725,1.318,2.67,2.67,0,0,1-1.923-.017L6.681,68.008c-.061-.023-.107.016-.14.117-.047.143-.088.285-.121.427s-.073.284-.119.428a1.523,1.523,0,0,1-.368.643.433.433,0,0,1-.453.155c-.152-.053-.248-.205-.284-.454a1.615,1.615,0,0,1,.108-.8c.159-.415.3-.772.408-1.071s.218-.593.316-.881.2-.587.293-.9.207-.671.329-1.078a1.448,1.448,0,0,1,.4-.667.454.454,0,0,1,.486-.138.488.488,0,0,1,.259.449,1.638,1.638,0,0,1-.13.77q-.1.2-.188.431c-.06.154-.12.307-.184.459l-.015.043c-.035.1-.022.16.038.184l4.331,1.716a2.759,2.759,0,0,0,.457.124,2.081,2.081,0,0,0,.659.009,1.952,1.952,0,0,0,.778-.3,3.107,3.107,0,0,0,.808-.79,6.2,6.2,0,0,0,.756-1.439,6.39,6.39,0,0,0,.441-1.59,3.055,3.055,0,0,0-.054-1.139,2.227,2.227,0,0,0-.832-1.257,2.808,2.808,0,0,0-.4-.248l-4.21-2.021c-.058-.028-.109.006-.15.1-.07.16-.133.317-.189.468s-.109.305-.158.46a1.532,1.532,0,0,1-.419.62.447.447,0,0,1-.488.13A.5.5,0,0,1,8.4,60.5a1.454,1.454,0,0,1,.163-.746c.19-.385.355-.719.493-1s.266-.555.38-.81.241-.548.363-.841.258-.629.411-1.01" fill="blue"/>
            <path id="パス_1798" data-name="パス 1798" d="M22.257,40.053c.139.073.2.223.179.45a1.525,1.525,0,0,1-.827,1.131.468.468,0,0,1-.482-.016,2.03,2.03,0,0,1-.24-.219c-.082-.088-.165-.171-.248-.252-.058-.044-.125-.016-.2.085q-1.71,2.331-3.291,4.794c-.068.107-.072.18-.011.221l2.094,1.392c.061.04.125.008.191-.1q1.353-2.109,2.8-4.116a1.171,1.171,0,0,1,.5-.412.4.4,0,0,1,.6.45,1.219,1.219,0,0,1-.243.593q-1.434,1.988-2.773,4.074c-.066.1-.068.175-.008.215l2.532,1.682c.054.036.106.015.155-.061q.149-.233.277-.463c.086-.155.172-.305.259-.452a1.139,1.139,0,0,1,.488-.481.465.465,0,0,1,.493,0,.471.471,0,0,1,.174.463,1.279,1.279,0,0,1-.247.638c-.219.288-.409.547-.569.774s-.31.45-.448.67-.265.435-.4.678-.292.535-.466.871a1.234,1.234,0,0,1-.459.486.454.454,0,0,1-.487.033.487.487,0,0,1-.2-.461,1.15,1.15,0,0,1,.219-.644l.245-.357.021-.035c.048-.078.045-.135-.01-.17L16.055,47.8c-.062-.039-.122-.011-.181.086a1.72,1.72,0,0,0-.116.226,1.844,1.844,0,0,1-.126.245,1.355,1.355,0,0,1-.492.5.458.458,0,0,1-.483.039.5.5,0,0,1-.189-.506,1.533,1.533,0,0,1,.28-.745q.252-.346.512-.711c.173-.243.335-.483.485-.724q1.966-3.131,4.136-6.053a1.947,1.947,0,0,1,.773-.644.716.716,0,0,1,.718.005l.885.533" fill="blue"/>
            <path id="パス_1799" data-name="パス 1799" d="M31.514,38.7a1.1,1.1,0,0,1,.545-.392.478.478,0,0,1,.489.073.463.463,0,0,1,.113.473,1.211,1.211,0,0,1-.327.58q-.381.368-.693.7t-.6.658q-.494.573-1.079,1.394a1.227,1.227,0,0,1-.528.413.464.464,0,0,1-.486-.041.478.478,0,0,1-.143-.474,1.109,1.109,0,0,1,.311-.6l.275-.294.29-.307.024-.03q.087-.1.012-.165l-5.341-4.528c-.049-.042-.1-.027-.167.046-.1.125-.2.249-.293.37s-.178.244-.261.371a1.412,1.412,0,0,1-.563.455.464.464,0,0,1-.5-.023.475.475,0,0,1-.128-.492,1.28,1.28,0,0,1,.345-.643c.275-.294.521-.559.74-.8s.431-.479.638-.719c.352-.407.754-.9,1.214-1.489a1.277,1.277,0,0,1,.582-.432.477.477,0,0,1,.5.056.464.464,0,0,1,.1.49,1.4,1.4,0,0,1-.364.62c-.1.09-.2.185-.3.284s-.194.2-.3.309l-.027.03c-.063.072-.07.129-.021.172l5.262,4.62c.049.043.107.026.174-.05.084-.095.167-.2.252-.312s.165-.218.244-.318" fill="blue"/>
            <path id="パス_1800" data-name="パス 1800" d="M36.858,22.439a9.912,9.912,0,0,1,2.482-1.468,7.934,7.934,0,0,1,2.49-.586,5.209,5.209,0,0,1,2.156.293,3.206,3.206,0,0,1,2.12,2.9,5.265,5.265,0,0,1-.33,2.041,7.989,7.989,0,0,1-1.136,2.071A10.175,10.175,0,0,1,42.8,29.573a10.427,10.427,0,0,1-2.259,1.392,8.425,8.425,0,0,1-2.311.683,5.613,5.613,0,0,1-2.118-.082,3.322,3.322,0,0,1-1.651-.935,3.088,3.088,0,0,1-.825-1.682,4.923,4.923,0,0,1,.151-2.138,7.634,7.634,0,0,1,1.1-2.282,9.858,9.858,0,0,1,1.974-2.09m5.23,6.281a7.544,7.544,0,0,0,1.79-1.965,4.559,4.559,0,0,0,.7-2.076,2.753,2.753,0,0,0-2.2-2.9,4.662,4.662,0,0,0-2.314.154,7.445,7.445,0,0,0-2.5,1.356,7.371,7.371,0,0,0-1.878,2.138,4.405,4.405,0,0,0-.624,2.2,2.6,2.6,0,0,0,.7,1.8,2.82,2.82,0,0,0,1.742.884,4.8,4.8,0,0,0,2.244-.271,7.9,7.9,0,0,0,2.331-1.326" fill="blue"/>
            <path id="パス_1801" data-name="パス 1801" d="M51.355,15.87a6.834,6.834,0,0,1,2.041-.8,4.637,4.637,0,0,1,1.733-.038,3.324,3.324,0,0,1,1.308.521,2.58,2.58,0,0,1,.808.875,2.361,2.361,0,0,1,.272,1.167,3.337,3.337,0,0,1-.319,1.351,5.008,5.008,0,0,1-.956,1.373,6.951,6.951,0,0,1-1.635,1.241,5.637,5.637,0,0,1-1.147.495,5.377,5.377,0,0,1-1.192.229.21.21,0,0,0-.109.038c-.053.032-.064.071-.033.119l1.276,1.97c.04.061.1.06.193,0l.436-.289a.947.947,0,0,1,.563-.192.449.449,0,0,1,.4.2.4.4,0,0,1-.011.421,1.015,1.015,0,0,1-.425.4q-.5.254-.77.407t-.5.294q-.289.18-.53.352c-.16.115-.387.275-.68.482a1.061,1.061,0,0,1-.554.2.427.427,0,0,1-.4-.167.419.419,0,0,1-.018-.439.916.916,0,0,1,.417-.414l.456-.262.031-.019c.072-.045.089-.094.053-.148L48,19.193c-.036-.053-.092-.056-.169-.008-.121.077-.23.153-.328.23s-.206.153-.325.23a1.111,1.111,0,0,1-.582.188.466.466,0,0,1-.428-.17.459.459,0,0,1,.006-.491,1.113,1.113,0,0,1,.475-.474l.733-.409c.259-.144.505-.288.74-.433a1.142,1.142,0,0,1,.606-.186.466.466,0,0,1,.423.183l.033.051a.088.088,0,0,0,.1.047.168.168,0,0,0,.1-.1,5.63,5.63,0,0,1,.792-1.072,4.9,4.9,0,0,1,1.18-.912m2.759,4.816a4.1,4.1,0,0,0,1.223-1.023,2.718,2.718,0,0,0,.571-1.239,1.788,1.788,0,0,0-.211-1.207,1.843,1.843,0,0,0-.931-.818,2.723,2.723,0,0,0-1.384-.149,4.72,4.72,0,0,0-2.767,1.507,3.345,3.345,0,0,0-.678,1.168.165.165,0,0,0,.006.153l1.416,2.184a.188.188,0,0,0,.114.073,4.187,4.187,0,0,0,2.641-.649" fill="blue"/>
            <path id="パス_1802" data-name="パス 1802" d="M66.359,12.894q-3.035,1.179-5.986,2.549c-.114.054-.143.111-.083.173a2.593,2.593,0,0,0,1.634.575,4.687,4.687,0,0,0,2.083-.406,4.1,4.1,0,0,0,1.918-1.564,1.074,1.074,0,0,1,.548-.437,1.045,1.045,0,0,1,.458-.075c.263.011.429.1.5.262a.368.368,0,0,1-.039.339,5.3,5.3,0,0,1-1.218,1.35,7.682,7.682,0,0,1-3.582,1.566,6.051,6.051,0,0,1-1.734.017,3.988,3.988,0,0,1-1.445-.472,2.362,2.362,0,0,1-1.131-2.7,4.05,4.05,0,0,1,1.077-1.81,6.486,6.486,0,0,1,2.125-1.42,6.221,6.221,0,0,1,3.424-.556,3.1,3.1,0,0,1,2.262,1.437.54.54,0,0,1-.059.629,1.548,1.548,0,0,1-.749.546M61.887,11.7a4.214,4.214,0,0,0-1.716,1.233,2.022,2.022,0,0,0-.451,1.554.151.151,0,0,0,.011.022c.029.058.09.065.183.022q2.667-1.239,5.4-2.323c.118-.047.149-.107.09-.179-.754-.879-1.941-1.005-3.521-.329" fill="blue"/>
            <path id="パス_1803" data-name="パス 1803" d="M79.13,10.716a.974.974,0,0,1,.594-.025.442.442,0,0,1,.334.3.4.4,0,0,1-.141.4,1.049,1.049,0,0,1-.523.261c-.376.071-.671.13-.881.177s-.413.1-.6.148c-.214.057-.421.12-.619.187l-.824.274a1.088,1.088,0,0,1-.59.038.424.424,0,0,1-.34-.271.412.412,0,0,1,.117-.424.947.947,0,0,1,.519-.274l.528-.124.036-.01c.084-.023.117-.065.1-.127l-.96-3.123a1.091,1.091,0,0,0-.53-.728,1.464,1.464,0,0,0-.994.02,6.651,6.651,0,0,0-3,2.07.168.168,0,0,0-.043.166q.531,1.471,1.06,2.942.038.1.192.039l.507-.188a.977.977,0,0,1,.591-.061.446.446,0,0,1,.353.282.4.4,0,0,1-.114.408,1.029,1.029,0,0,1-.5.292c-.372.093-.662.171-.869.231s-.4.121-.591.183q-.315.105-.607.224c-.193.079-.462.186-.805.324a1.076,1.076,0,0,1-.585.073.424.424,0,0,1-.358-.25.413.413,0,0,1,.089-.43.941.941,0,0,1,.5-.3l.537-.162c.106-.036.148-.085.124-.145q-.784-2.072-1.57-4.145c-.023-.06-.078-.075-.164-.046a3.568,3.568,0,0,0-.344.139,3.652,3.652,0,0,1-.343.14,1.055,1.055,0,0,1-.568.048A.43.43,0,0,1,67.486,9a.411.411,0,0,1,.1-.428,1.008,1.008,0,0,1,.529-.323c.176-.053.366-.109.568-.166l.608-.176a1.753,1.753,0,0,1,.964-.056.7.7,0,0,1,.543.406l.041.114a.088.088,0,0,0,.1.064.184.184,0,0,0,.128-.074A6.955,6.955,0,0,1,74.239,6.3c1.775-.506,2.875-.017,3.28,1.4q.452,1.563.9,3.125.03.105.189.051l.518-.157" fill="blue"/>
            <path id="パス_1804" data-name="パス 1804" d="M98.121,6.033a.562.562,0,0,1,.378.456.412.412,0,0,1-.128.333,7.146,7.146,0,0,1-2.3,1.538,10.326,10.326,0,0,1-2.958.787,10.345,10.345,0,0,1-2.646-.016,8.376,8.376,0,0,1-2.308-.646A5.559,5.559,0,0,1,86.427,7.3a3.284,3.284,0,0,1-.888-1.649,3.068,3.068,0,0,1,.19-1.842,4.731,4.731,0,0,1,1.258-1.688A7.859,7.859,0,0,1,89.129.8a10.187,10.187,0,0,1,2.8-.719,8.96,8.96,0,0,1,4.92.65c.754.337,1.14.7,1.168,1.072a.689.689,0,0,1-.351.614,1.8,1.8,0,0,1-.925.308,1.731,1.731,0,0,1-.986-.172.713.713,0,0,1-.43-.528.542.542,0,0,1,.139-.41c.06-.07.048-.121-.035-.154a6.181,6.181,0,0,0-3.366-.355,7.448,7.448,0,0,0-2.716.816,4.5,4.5,0,0,0-1.716,1.534,2.569,2.569,0,0,0-.373,1.892A2.724,2.724,0,0,0,88.26,7a4.951,4.951,0,0,0,2.042.952,7.74,7.74,0,0,0,2.673.115,8.031,8.031,0,0,0,2.347-.622,4.926,4.926,0,0,0,1.709-1.2.838.838,0,0,1,.625-.288.921.921,0,0,1,.465.076" fill="blue"/>
            <path id="パス_1805" data-name="パス 1805" d="M108.885,7.407a.88.88,0,0,1,.169-.007.955.955,0,0,1,.538.168.439.439,0,0,1,.208.386.48.48,0,0,1-.3.4,1.009,1.009,0,0,1-.653.092,5.047,5.047,0,0,0-.545-.08c-.179-.016-.349-.03-.51-.041a1.668,1.668,0,0,1-.666-.143,1.083,1.083,0,0,1-.443-.341.164.164,0,0,0-.224-.038,6.364,6.364,0,0,1-1.36.449,9.208,9.208,0,0,1-1.7.173,4.392,4.392,0,0,1-2.154-.42,1.461,1.461,0,0,1-.907-1.215,1.4,1.4,0,0,1,.4-1.058,3.017,3.017,0,0,1,1.241-.756,6.038,6.038,0,0,1,1.907-.3,9.637,9.637,0,0,1,1.205.059,9.349,9.349,0,0,1,1.3.241.126.126,0,0,1,.038.006.126.126,0,0,0,.038.006c.09,0,.135-.031.135-.095,0-.124,0-.248,0-.372a1.313,1.313,0,0,0-.662-1.221,3.018,3.018,0,0,0-1.617-.394,4.232,4.232,0,0,0-.6.05c-.2.032-.406.074-.614.126-.1.027-.135.072-.094.135a.635.635,0,0,1,.031.083.3.3,0,0,1,.013.084.656.656,0,0,1-.336.542,1.589,1.589,0,0,1-.884.261,1.531,1.531,0,0,1-.912-.212.7.7,0,0,1-.367-.543.582.582,0,0,1,.082-.316,1,1,0,0,1,.28-.3,4.031,4.031,0,0,1,1.344-.642,6.636,6.636,0,0,1,1.745-.248,5.875,5.875,0,0,1,3.177.675,2.1,2.1,0,0,1,1.071,1.946q-.035,1.4-.071,2.8c0,.072.04.109.128.111a1.852,1.852,0,0,0,.291-.016c.094-.014.185-.023.273-.029m-5.511.014a7.864,7.864,0,0,0,1.732-.239,5.371,5.371,0,0,0,1.4-.634.175.175,0,0,0,.077-.132c0-.088,0-.176,0-.264,0-.055-.037-.1-.113-.121a9.694,9.694,0,0,0-.979-.266,6.823,6.823,0,0,0-1.556-.119,3.426,3.426,0,0,0-1.517.3.827.827,0,0,0-.522.779.612.612,0,0,0,.424.515,2.357,2.357,0,0,0,1.047.177" fill="blue"/>
            <path id="パス_1806" data-name="パス 1806" d="M127.274,9.584a.957.957,0,0,1,.541.233.415.415,0,0,1,.152.413.435.435,0,0,1-.318.3,1.038,1.038,0,0,1-.592.014c-.371-.1-.661-.174-.87-.227s-.411-.1-.6-.134q-.329-.062-.642-.1c-.209-.025-.5-.059-.868-.1a1.029,1.029,0,0,1-.541-.227.408.408,0,0,1-.172-.394.434.434,0,0,1,.307-.327.98.98,0,0,1,.593-.02q.265.057.53.117l.037.007c.086.015.135-.009.148-.072q.3-1.5.6-2.994a1.519,1.519,0,0,0-.051-.883.839.839,0,0,0-.527-.5c-.088-.031-.175-.058-.264-.081s-.178-.043-.268-.058a5.832,5.832,0,0,0-3.309.663c-.069.031-.108.07-.116.117q-.234,1.521-.467,3.04c-.01.064.041.1.152.119.186.017.373.036.56.055a.986.986,0,0,1,.572.2.416.416,0,0,1,.178.4.427.427,0,0,1-.308.318,1.08,1.08,0,0,1-.6.046c-.375-.078-.67-.137-.882-.178s-.411-.073-.6-.1c-.232-.03-.451-.052-.655-.065s-.492-.03-.864-.049a1.071,1.071,0,0,1-.563-.2.411.411,0,0,1-.206-.385.429.429,0,0,1,.286-.343,1.014,1.014,0,0,1,.61-.052l.554.089c.112.014.172-.011.181-.075l.414-3.022q.155-1.107-.565-1.35a2.074,2.074,0,0,0-.46-.1,4.139,4.139,0,0,0-1.513.149,8.9,8.9,0,0,0-1.813.721c-.067.035-.1.077-.108.124q-.139,1.518-.28,3.037c-.006.063.047.1.159.109l.562.025a.96.96,0,0,1,.566.172.417.417,0,0,1,.2.393.423.423,0,0,1-.278.335,1.038,1.038,0,0,1-.587.079q-.568-.085-.891-.129c-.215-.03-.42-.052-.618-.067q-.333-.024-.649-.028c-.21,0-.5,0-.873,0a1.041,1.041,0,0,1-.566-.165.416.416,0,0,1-.22-.373.428.428,0,0,1,.265-.358.968.968,0,0,1,.587-.086l.559.059c.112.008.171-.021.176-.084l.33-4.369c.005-.064-.039-.1-.13-.105-.13-.009-.254-.012-.372-.012s-.237.005-.355.014a1.165,1.165,0,0,1-.638-.162.434.434,0,0,1-.252-.392.432.432,0,0,1,.3-.369,1.22,1.22,0,0,1,.659-.083c.261.048.588.092.982.135.243.017.486.034.73.053a1.121,1.121,0,0,1,.587.195.427.427,0,0,1,.213.385c-.009.092-.017.183-.025.275a.084.084,0,0,0,.06.089.17.17,0,0,0,.149-.011,6.706,6.706,0,0,1,3.395-.607,4.163,4.163,0,0,1,1.233.328,1.75,1.75,0,0,1,1.006,1,.161.161,0,0,0,.228.067,6.779,6.779,0,0,1,3.681-.532,4.425,4.425,0,0,1,1.305.423,1.917,1.917,0,0,1,.848.75,2.143,2.143,0,0,1,.276.9,2.917,2.917,0,0,1-.046.8l-.651,2.985c-.014.063.035.1.145.127l.555.086" fill="blue"/>
            <path id="パス_1807" data-name="パス 1807" d="M137.059,6.286a6.779,6.779,0,0,1,1.985.891,4.332,4.332,0,0,1,1.2,1.189,3.039,3.039,0,0,1,.489,1.271,2.327,2.327,0,0,1-.829,2.148,3.662,3.662,0,0,1-1.249.7,5.461,5.461,0,0,1-1.695.264,7.188,7.188,0,0,1-2.052-.3,5.6,5.6,0,0,1-1.151-.47,5.119,5.119,0,0,1-.977-.683.2.2,0,0,0-.1-.051c-.061-.016-.1,0-.114.058q-.319,1.117-.64,2.235c-.019.069.023.114.132.133l.515.11a.94.94,0,0,1,.525.266.415.415,0,0,1,.119.419.426.426,0,0,1-.329.279,1.059,1.059,0,0,1-.591-.027q-.528-.177-.829-.265c-.2-.06-.389-.112-.562-.155-.221-.055-.428-.1-.624-.135s-.469-.087-.823-.153a1.03,1.03,0,0,1-.528-.252.4.4,0,0,1-.142-.4.444.444,0,0,1,.321-.31.965.965,0,0,1,.6.014l.506.145.035.008c.082.02.132,0,.148-.063q.938-3.483,1.872-6.967c.017-.062-.019-.1-.107-.125a3.618,3.618,0,0,0-.395-.075c-.123-.017-.255-.042-.394-.074a1.083,1.083,0,0,1-.533-.283.432.432,0,0,1-.158-.418.486.486,0,0,1,.377-.329,1.168,1.168,0,0,1,.679.015l.8.24c.284.085.559.161.827.228a1.106,1.106,0,0,1,.55.3.428.428,0,0,1,.145.422c-.005.02-.011.039-.017.058a.081.081,0,0,0,.033.1.172.172,0,0,0,.141.005,6.089,6.089,0,0,1,1.35-.171,5.086,5.086,0,0,1,1.492.21M135.248,11.5a4.262,4.262,0,0,0,1.607.163,2.957,2.957,0,0,0,1.332-.443,1.881,1.881,0,0,0,.779-.968,1.726,1.726,0,0,0-.006-1.21,2.5,2.5,0,0,0-.822-1.072,4.321,4.321,0,0,0-1.521-.742,4.632,4.632,0,0,0-1.5-.177,3.6,3.6,0,0,0-1.347.316.174.174,0,0,0-.112.108l-.711,2.479a.176.176,0,0,0,.022.13,4.021,4.021,0,0,0,2.275,1.416" fill="blue"/>
            <path id="パス_1808" data-name="パス 1808" d="M150.347,17.074a1.055,1.055,0,0,1,.515.383.427.427,0,0,1,.054.461.474.474,0,0,1-.42.23,1.079,1.079,0,0,1-.62-.145l-.478-.28c-.17-.1-.331-.19-.485-.268a1.631,1.631,0,0,1-.678-.569.637.637,0,0,1-.09-.648.05.05,0,0,0-.025-.077.283.283,0,0,0-.158-.016,5.13,5.13,0,0,1-2.975-.262,5.588,5.588,0,0,1-1.962-1.242,3.362,3.362,0,0,1-.567-.848,1.332,1.332,0,0,1-.008-1.115q.627-1.577,1.255-3.155c.023-.06-.007-.1-.093-.136a3.7,3.7,0,0,0-.365-.111c-.121-.031-.249-.069-.384-.117a1.038,1.038,0,0,1-.466-.31.391.391,0,0,1-.1-.409.432.432,0,0,1,.37-.255,1.078,1.078,0,0,1,.62.088c.278.115.5.2.656.266s.33.13.511.205a1.65,1.65,0,0,1,.769.536.639.639,0,0,1,.141.654q-.69,1.657-1.382,3.314a.7.7,0,0,0,.011.631,1.558,1.558,0,0,0,.439.5,3.431,3.431,0,0,0,.568.353c.19.093.326.156.406.188a4.13,4.13,0,0,0,1.63.291,4.755,4.755,0,0,0,1.694-.34.228.228,0,0,0,.11-.1l1.284-2.688c.028-.058,0-.106-.083-.142a3.831,3.831,0,0,0-.366-.139c-.124-.041-.246-.087-.365-.137a1.032,1.032,0,0,1-.444-.34.4.4,0,0,1-.068-.416.437.437,0,0,1,.387-.231,1.07,1.07,0,0,1,.612.129c.271.133.482.237.637.308s.32.151.5.238a1.645,1.645,0,0,1,.731.586.642.642,0,0,1,.1.663q-1.026,2.06-2.053,4.121c-.039.08,0,.138.121.175l.517.173" fill="blue"/>
            <path id="パス_1809" data-name="パス 1809" d="M156.461,16.079c-.092.162-.026.361.2.6a7.013,7.013,0,0,0,.935.8q.6.44,1.253.946a10.486,10.486,0,0,1,1.177,1.057,3.231,3.231,0,0,1,.719,1.1,1.116,1.116,0,0,1-.132,1.047,1.322,1.322,0,0,1-1,.561,4.068,4.068,0,0,1-1.634-.2,10.257,10.257,0,0,1-2.04-.892,10.372,10.372,0,0,1-1.22-.8,9.231,9.231,0,0,1-1.052-.917,3.588,3.588,0,0,1-.669-.9.79.79,0,0,1-.043-.741.674.674,0,0,1,.583-.324,1.533,1.533,0,0,1,.847.18,1.381,1.381,0,0,1,.646.6.64.64,0,0,1,.023.623l-.036.063a.16.16,0,0,1-.053.054l-.012.021c-.024.043-.009.091.045.148.183.18.4.368.642.565a5.746,5.746,0,0,0,.823.549,6.351,6.351,0,0,0,1.787.724c.51.1.839.037.986-.2.114-.178.067-.393-.138-.646a6.015,6.015,0,0,0-.882-.839q-.573-.459-1.227-.958t-1.21-1a3.6,3.6,0,0,1-.811-1.01,1,1,0,0,1,.006-.984,1.594,1.594,0,0,1,1.663-.693,7.041,7.041,0,0,1,2.886.986,8.652,8.652,0,0,1,1.567,1.092,3.789,3.789,0,0,1,.87,1.06.8.8,0,0,1,.035.825l-.043.066a.169.169,0,0,1-.06.056.735.735,0,0,1-.592.167,1.745,1.745,0,0,1-.778-.253,1.441,1.441,0,0,1-.645-.7.569.569,0,0,1,.08-.662l.012-.02c.025-.041.012-.092-.044-.152a5.018,5.018,0,0,0-.41-.318q-.216-.15-.5-.312a4.971,4.971,0,0,0-1.625-.614c-.481-.075-.786.007-.919.239" fill="blue"/>
            <path id="パス_1810" data-name="パス 1810" d="M177.46,34.085a1.172,1.172,0,0,1,.349.6.413.413,0,0,1-.141.457l-.816.635a.734.734,0,0,1-.69.121,1.681,1.681,0,0,1-.79-.457q-2.781-2.727-5.77-5.179a1.5,1.5,0,0,1-.52-.738.59.59,0,0,1,.12-.638,2.888,2.888,0,0,1,1.682-.681,6.007,6.007,0,0,1,2.156.286,16.2,16.2,0,0,1,2.613,1.066c.744.363,1.361.658,1.853.873a2.812,2.812,0,0,0,1.236.3,1.1,1.1,0,0,0,.849-.521c.5-.847.081-1.936-1.307-3.193-1.17-1.055-2.173-1.487-2.965-1.327a.078.078,0,0,0-.047.024c-.028.03-.023.077.011.138a1,1,0,0,1,.136.508.583.583,0,0,1-.142.369.74.74,0,0,1-.646.193,1.665,1.665,0,0,1-.925-.435,1.561,1.561,0,0,1-.6-.872.9.9,0,0,1,.2-.783,1.6,1.6,0,0,1,.962-.491,4.19,4.19,0,0,1,2.317.382,8.822,8.822,0,0,1,3.766,3.18,5.3,5.3,0,0,1,.783,1.8,2.278,2.278,0,0,1-.186,1.588,1.794,1.794,0,0,1-.289.367,1.549,1.549,0,0,1-1.065.464,3.874,3.874,0,0,1-1.346-.226,13.9,13.9,0,0,1-1.53-.624q-.8-.38-1.614-.774a16.259,16.259,0,0,0-1.6-.67,5.812,5.812,0,0,0-1.469-.329,2.112,2.112,0,0,0-1.213.241l-.016.019c-.042.049-.026.106.052.17q2.538,2.12,4.929,4.437c.081.079.148.093.2.041.077-.095.15-.192.22-.289a2.089,2.089,0,0,1,.225-.267.462.462,0,0,1,.46-.1,1.2,1.2,0,0,1,.57.338" fill="blue"/>
            <path id="パス_1811" data-name="パス 1811" d="M188.566,36.238a8.052,8.052,0,0,1,1.61,2.9,4.513,4.513,0,0,1,.006,2.621,4.1,4.1,0,0,1-1.541,2.045,4.609,4.609,0,0,1-2.448.956,4.475,4.475,0,0,1-2.459-.57,8.012,8.012,0,0,1-2.321-2.01,7.905,7.905,0,0,1-1.526-2.649,4.365,4.365,0,0,1-.074-2.5,4.751,4.751,0,0,1,1.408-2.216,4.129,4.129,0,0,1,2.282-1.145,4.373,4.373,0,0,1,2.546.473,7.843,7.843,0,0,1,2.517,2.1M182.2,41.525a4.767,4.767,0,0,0,1.655,1.343,3.26,3.26,0,0,0,1.838.29,3.855,3.855,0,0,0,1.841-.806,3.441,3.441,0,0,0,1.191-1.555,3.25,3.25,0,0,0,.087-1.9,4.935,4.935,0,0,0-1.048-1.993,4.837,4.837,0,0,0-1.739-1.383,3.2,3.2,0,0,0-1.871-.258,3.436,3.436,0,0,0-1.739.888,3.573,3.573,0,0,0-1.308,2.572,4.107,4.107,0,0,0,1.093,2.8" fill="blue"/>
            <path id="パス_1812" data-name="パス 1812" d="M193.272,55.364a1.336,1.336,0,0,1,.178.715.424.424,0,0,1-.255.42l-.95.391a.7.7,0,0,1-.695-.092,1.816,1.816,0,0,1-.64-.708q-1.955-3.618-4.192-6.962a1.639,1.639,0,0,1-.308-.893.607.607,0,0,1,.282-.6,2.735,2.735,0,0,1,1.8-.183,5.961,5.961,0,0,1,2,.929,16.562,16.562,0,0,1,2.234,1.859c.62.591,1.136,1.076,1.553,1.444a2.871,2.871,0,0,0,1.11.68,1.03,1.03,0,0,0,.952-.266c.705-.7.585-1.934-.42-3.622-.849-1.417-1.7-2.15-2.505-2.227a.072.072,0,0,0-.052.01c-.033.023-.042.07-.025.142a1.115,1.115,0,0,1,0,.551.593.593,0,0,1-.232.328.71.71,0,0,1-.673,0,1.751,1.751,0,0,1-.776-.713,1.732,1.732,0,0,1-.348-1.052.925.925,0,0,1,.394-.726,1.521,1.521,0,0,1,1.054-.206,4.187,4.187,0,0,1,2.129,1.074,9.142,9.142,0,0,1,1.839,2.214A9.546,9.546,0,0,1,197.67,50a5.961,5.961,0,0,1,.283,2.058,2.427,2.427,0,0,1-.6,1.55,1.768,1.768,0,0,1-.374.284,1.453,1.453,0,0,1-1.146.139,3.9,3.9,0,0,1-1.234-.645,14.538,14.538,0,0,1-1.306-1.1q-.666-.625-1.349-1.271a16.574,16.574,0,0,0-1.365-1.159,5.823,5.823,0,0,0-1.327-.771,2.011,2.011,0,0,0-1.229-.12l-.02.014c-.054.036-.053.1.005.185q1.889,2.883,3.578,5.964c.057.1.118.139.181.1.1-.073.195-.148.288-.224a1.993,1.993,0,0,1,.285-.2.44.44,0,0,1,.468.044,1.291,1.291,0,0,1,.459.519" fill="blue"/>
            <path id="パス_1813" data-name="パス 1813" d="M200.99,58.576c-.06-.133-.122-.183-.188-.151q-1.164.376-2.324.761c-.08.04-.08.118,0,.236a18.194,18.194,0,0,1,1.32,2.524,10.023,10.023,0,0,1,.828,3.152,4.311,4.311,0,0,1-.31,2.128,2,2,0,0,1-1.055,1.055,1.572,1.572,0,0,1-1.015,0,3.516,3.516,0,0,1-1.228-.692,7.145,7.145,0,0,1-1.276-1.419,11.432,11.432,0,0,1-1.173-2.185,13.041,13.041,0,0,1-.79-2.487,5.787,5.787,0,0,1-.089-2.073c.089-.564.263-.916.529-1.056a.549.549,0,0,1,.447-.028,1.523,1.523,0,0,1,.891.9,1.81,1.81,0,0,1,.2,1.03.725.725,0,0,1-.353.59.608.608,0,0,1-.448.014c-.086-.033-.124,0-.113.1a7.175,7.175,0,0,0,.649,2.574,8.607,8.607,0,0,0,.967,1.76,4.074,4.074,0,0,0,1.1,1.084,1.14,1.14,0,0,0,1.014.182c1.164-.4,1.261-2.014.126-4.718a11.39,11.39,0,0,0-.738-1.458q-.4-.654-.893-1.32c-.031-.048-.057-.092-.082-.134s-.046-.083-.063-.121a1.38,1.38,0,0,1-.145-.691.447.447,0,0,1,.25-.424q1.655-.586,3.316-1.157a.752.752,0,0,1,.714.175,2.148,2.148,0,0,1,.649.854q1.412,3.108,2.637,6.382a1.474,1.474,0,0,1,.1.717.473.473,0,0,1-.248.418.418.418,0,0,1-.442-.136,1.463,1.463,0,0,1-.381-.592q-1.11-2.97-2.378-5.8" fill="blue"/>
            <path id="パス_1814" data-name="パス 1814" d="M209.12,80.281a11.062,11.062,0,0,1,.162,3.88,5.523,5.523,0,0,1-1.141,2.723,3.639,3.639,0,0,1-2.258,1.259,3.913,3.913,0,0,1-2.582-.387,5.046,5.046,0,0,1-1.927-1.974,10.932,10.932,0,0,1-1.181-3.36,10.8,10.8,0,0,1-.2-3.538A5.164,5.164,0,0,1,201,76.309a4.382,4.382,0,0,1,2.209-1.478,3.556,3.556,0,0,1,2.524.073,4.69,4.69,0,0,1,2.059,1.858,10.164,10.164,0,0,1,1.324,3.519m-7.941,1.9a6.435,6.435,0,0,0,.882,2.3,3.522,3.522,0,0,0,1.5,1.326,3.255,3.255,0,0,0,1.982.2,3.037,3.037,0,0,0,1.733-.944,3.87,3.87,0,0,0,.908-1.915,6.8,6.8,0,0,0-.062-2.631,6.3,6.3,0,0,0-.942-2.368,3.363,3.363,0,0,0-1.549-1.281,2.951,2.951,0,0,0-1.931-.044,3.44,3.44,0,0,0-2.275,1.9,5.45,5.45,0,0,0-.247,3.46" fill="blue"/>
            <path id="パス_1815" data-name="パス 1815" d="M207.318,101.717c-.019-.085-.04-.126-.064-.125s-.046.053-.068.155a6.572,6.572,0,0,1-.825,2.45,1.592,1.592,0,0,1-1.3.9,1.737,1.737,0,0,1-1.407-.925,7.816,7.816,0,0,1-1-2.494,20.26,20.26,0,0,1-.493-3.619,19.344,19.344,0,0,1,.086-3.585,7.263,7.263,0,0,1,.715-2.512,1.812,1.812,0,0,1,1.3-1.061,1.522,1.522,0,0,1,1.345.608A5.816,5.816,0,0,1,206.72,93.6c.056.175.1.178.134.01a4.372,4.372,0,0,1,.6-1.584,1.385,1.385,0,0,1,.936-.7,1.46,1.46,0,0,1,1.321.622,5.87,5.87,0,0,1,1.045,2.127,14.422,14.422,0,0,1,.538,3.315,15.042,15.042,0,0,1-.157,3.4,6.757,6.757,0,0,1-.792,2.356,1.508,1.508,0,0,1-1.239.863,1.29,1.29,0,0,1-1-.615,5.1,5.1,0,0,1-.788-1.682m-4.225-3.727a11.827,11.827,0,0,0,.63,3.538c.344.883.778,1.331,1.314,1.319a1.084,1.084,0,0,0,.875-.678,5.622,5.622,0,0,0,.553-1.815,12.345,12.345,0,0,0,.1-2.618,11.252,11.252,0,0,0-.4-2.5,5.54,5.54,0,0,0-.765-1.709c-.295-.4-.6-.584-.921-.545-.557.069-.946.54-1.179,1.41a11.881,11.881,0,0,0-.206,3.6m5.5-4.455c-.414.047-.716.452-.916,1.215a9.606,9.606,0,0,0-.192,2.919,11.094,11.094,0,0,0,.286,2.036,4.99,4.99,0,0,0,.561,1.45c.226.36.466.539.722.531.424-.014.764-.414,1.009-1.2a8.666,8.666,0,0,0,.272-3.024,9.222,9.222,0,0,0-.331-2.05,4.612,4.612,0,0,0-.636-1.418.869.869,0,0,0-.775-.458" fill="blue"/>
            <path id="パス_1816" data-name="パス 1816" d="M209.587,126.735q-.234.02-.373-.344a1.86,1.86,0,0,1-.088-.874,1.787,1.787,0,0,1,.264-.826c.141-.207.286-.3.436-.264l.86.214c.072.007.115-.056.127-.189q.171-1.823.289-3.68c.01-.152-.022-.231-.094-.236q-3.36-.215-6.721-.437c-.065,0-.1.048-.107.16-.012.19-.018.376-.019.559s0,.351-.006.51a1.585,1.585,0,0,1-.2.788c-.126.21-.268.307-.428.293s-.27-.135-.355-.362a1.774,1.774,0,0,1-.084-.805c.058-.449.1-.8.123-1.062s.043-.474.058-.646.026-.362.037-.567c.012-.22.019-.418.024-.592s.009-.385.011-.632,0-.6,0-1.064a1.854,1.854,0,0,1,.17-.8q.165-.345.393-.342c.161,0,.29.123.392.36a1.687,1.687,0,0,1,.112.817c-.014.16-.028.329-.043.506s-.03.354-.045.53l0,.049c0,.111.026.169.089.172q3.365.15,6.728.289c.072,0,.112-.073.118-.229q.081-1.9.108-3.829c0-.141-.034-.21-.106-.211l-.877.131q-.229.051-.4-.313a2.415,2.415,0,0,1,.008-1.815c.119-.237.254-.351.406-.336.185.031.385.061.6.092s.432.052.648.066c.224.031.414.219.565.563a3.019,3.019,0,0,1,.222,1.239q-.056,5.928-.61,11.521a2.677,2.677,0,0,1-.345,1.127c-.187.314-.393.464-.618.453l-.655.018c-.219.007-.42.006-.6,0" fill="blue"/>
            <path id="パス_1817" data-name="パス 1817" d="M210.8,132.866q-.264,1.6-.566,3.172a14.735,14.735,0,0,1-1.531,4.433,6.863,6.863,0,0,1-2.268,2.55,2.966,2.966,0,0,1-2.525.368,3.444,3.444,0,0,1-2.041-1.674,7.108,7.108,0,0,1-.787-3.191,19.521,19.521,0,0,1,.424-4.517q.277-1.437.517-2.9c.046-.28.082-.564.106-.856s.046-.573.062-.844a1.736,1.736,0,0,1,.253-.792c.14-.215.295-.31.47-.282s.3.169.379.427a1.629,1.629,0,0,1,.013.834q-.066.288-.135.576c0,.015,0,.03-.007.045-.018.119,0,.185.067.2q3.337.585,6.677,1.162c.072.012.119-.062.144-.223q.006-.2.024-.4c.012-.139.027-.264.043-.376a1.8,1.8,0,0,1,.272-.761c.137-.2.281-.293.432-.27q.261.039.374.457a1.883,1.883,0,0,1,.006.9c-.064.322-.134.652-.21.986s-.141.662-.193.984m-7.8-.434c-.071-.014-.118.045-.141.178q-.144.817-.3,1.626-.14.722-.248,1.6a13.6,13.6,0,0,0-.107,1.767,6.993,6.993,0,0,0,.2,1.678,3.438,3.438,0,0,0,.678,1.376,2.609,2.609,0,0,0,1.34.831,2.327,2.327,0,0,0,1.24,0,3.077,3.077,0,0,0,1.331-.795,6.169,6.169,0,0,0,1.249-1.822,12.7,12.7,0,0,0,.945-3.065q.18-.936.347-1.881c.024-.143,0-.22-.07-.233q-3.234-.628-6.466-1.266" fill="blue"/>
            <path id="パス_1818" data-name="パス 1818" d="M202.51,160.479a1.408,1.408,0,0,1-.447.619.415.415,0,0,1-.727-.326,1.415,1.415,0,0,1,.154-.7c.049-.106.106-.218.17-.339s.132-.246.2-.374l.018-.039c.043-.093.034-.153-.024-.18q-2.1-1-4.188-2.013a2.9,2.9,0,0,1-1.394-1.373,4.265,4.265,0,0,1-.366-2.155,9.126,9.126,0,0,1,.662-2.739,9.234,9.234,0,0,1,1.368-2.476,4.16,4.16,0,0,1,1.721-1.334,2.707,2.707,0,0,1,1.928-.011q2.181.772,4.363,1.543c.061.021.106-.018.14-.119q.069-.214.117-.426c.032-.141.071-.284.116-.428a1.552,1.552,0,0,1,.364-.645.442.442,0,0,1,.454-.161c.153.051.25.2.288.445a1.577,1.577,0,0,1-.1.8q-.234.621-.4,1.071t-.31.88c-.1.286-.192.586-.287.9s-.2.669-.321,1.075a1.446,1.446,0,0,1-.391.669.46.46,0,0,1-.487.145.482.482,0,0,1-.264-.441,1.62,1.62,0,0,1,.124-.767c.064-.134.127-.278.185-.431s.119-.307.181-.459l.015-.042c.034-.1.02-.16-.04-.183q-2.179-.816-4.359-1.634a2.7,2.7,0,0,0-.46-.117,2.059,2.059,0,0,0-.661,0,1.98,1.98,0,0,0-.778.31,3.144,3.144,0,0,0-.8.8,6.18,6.18,0,0,0-.748,1.44,6.269,6.269,0,0,0-.429,1.583,2.985,2.985,0,0,0,.063,1.13,2.186,2.186,0,0,0,.845,1.237,2.733,2.733,0,0,0,.4.24q2.121.975,4.244,1.945c.059.027.109-.007.149-.1q.1-.242.186-.468c.056-.151.107-.305.155-.459a1.52,1.52,0,0,1,.415-.623.453.453,0,0,1,.488-.136.491.491,0,0,1,.252.459,1.442,1.442,0,0,1-.156.744c-.188.385-.349.719-.487,1.006s-.261.555-.373.81-.238.548-.357.84-.253.629-.4,1.01" fill="blue"/>
            <path id="パス_1819" data-name="パス 1819" d="M190.575,176.568c-.14-.071-.2-.219-.184-.445a1.3,1.3,0,0,1,.28-.681,1.328,1.328,0,0,1,.537-.453.476.476,0,0,1,.485.01,1.84,1.84,0,0,1,.243.215q.126.129.252.246c.059.043.126.014.2-.087q1.691-2.337,3.253-4.805c.068-.107.07-.18.008-.219q-1.059-.677-2.117-1.354c-.062-.04-.126-.008-.191.1q-1.336,2.11-2.772,4.124a1.17,1.17,0,0,1-.493.415.453.453,0,0,1-.46-.012.439.439,0,0,1-.149-.428,1.212,1.212,0,0,1,.237-.592q1.419-1.992,2.744-4.081c.065-.1.066-.174,0-.214q-1.279-.819-2.558-1.641c-.054-.035-.106-.013-.155.064-.1.154-.189.308-.273.463s-.17.3-.256.451a1.13,1.13,0,0,1-.485.484.434.434,0,0,1-.675-.452,1.266,1.266,0,0,1,.243-.637c.217-.289.4-.548.563-.774s.307-.452.444-.672.262-.434.4-.677.289-.535.46-.871a1.246,1.246,0,0,1,.457-.487.458.458,0,0,1,.488-.039.48.48,0,0,1,.207.456,1.133,1.133,0,0,1-.215.641c-.08.12-.161.239-.241.358l-.021.035c-.047.078-.044.135.012.169q2.937,1.813,5.878,3.62c.063.038.124.009.182-.087a1.775,1.775,0,0,0,.113-.227,2.031,2.031,0,0,1,.125-.245,1.366,1.366,0,0,1,.489-.507.465.465,0,0,1,.484-.046.492.492,0,0,1,.2.5,1.515,1.515,0,0,1-.274.743q-.249.348-.506.713t-.48.725q-1.941,3.138-4.089,6.068a1.951,1.951,0,0,1-.769.65.727.727,0,0,1-.722,0l-.894-.518" fill="blue"/>
            <path id="パス_1820" data-name="パス 1820" d="M181.295,178.016a1.094,1.094,0,0,1-.544.395.48.48,0,0,1-.49-.067.459.459,0,0,1-.12-.469,1.2,1.2,0,0,1,.323-.58q.378-.37.688-.7t.592-.66c.327-.384.683-.848,1.069-1.4a1.218,1.218,0,0,1,.526-.415.466.466,0,0,1,.488.035.473.473,0,0,1,.148.47,1.1,1.1,0,0,1-.306.6l-.273.295-.287.309-.024.029c-.058.069-.061.123-.011.165q2.7,2.223,5.415,4.44c.05.041.106.026.167-.048.1-.125.2-.25.29-.37s.176-.246.258-.373a1.421,1.421,0,0,1,.561-.459.426.426,0,0,1,.637.5,1.284,1.284,0,0,1-.34.644q-.408.441-.734.8t-.632.722c-.348.408-.747.908-1.2,1.494a1.279,1.279,0,0,1-.579.436.483.483,0,0,1-.507-.049.46.46,0,0,1-.1-.486,1.376,1.376,0,0,1,.358-.62c.1-.092.2-.186.293-.285s.192-.2.3-.311l.027-.031c.063-.072.069-.129.019-.171q-2.671-2.264-5.337-4.534c-.049-.042-.107-.025-.174.052-.083.1-.167.2-.25.313s-.162.218-.241.318" fill="blue"/>
            <path id="パス_1821" data-name="パス 1821" d="M176.126,194.24a9.891,9.891,0,0,1-2.474,1.486,7.99,7.99,0,0,1-2.493.609,5.288,5.288,0,0,1-2.17-.271,3.211,3.211,0,0,1-2.168-2.868,5.165,5.165,0,0,1,.306-2.034,7.908,7.908,0,0,1,1.115-2.073,10.115,10.115,0,0,1,1.827-1.889,10.46,10.46,0,0,1,2.25-1.4,8.562,8.562,0,0,1,2.312-.7,5.682,5.682,0,0,1,2.128.062,3.365,3.365,0,0,1,1.67.912,3.088,3.088,0,0,1,.85,1.665,4.882,4.882,0,0,1-.125,2.128,7.563,7.563,0,0,1-1.073,2.28,9.739,9.739,0,0,1-1.955,2.1m-5.334-6.2a7.492,7.492,0,0,0-1.773,1.972,4.5,4.5,0,0,0-.678,2.072,2.684,2.684,0,0,0,.569,1.837,2.73,2.73,0,0,0,1.679,1.024,4.717,4.717,0,0,0,2.323-.175A7.482,7.482,0,0,0,175.4,193.4a7.333,7.333,0,0,0,1.859-2.146,4.34,4.34,0,0,0,.6-2.2,2.582,2.582,0,0,0-.731-1.782,2.85,2.85,0,0,0-1.76-.863,4.87,4.87,0,0,0-2.249.292,7.872,7.872,0,0,0-2.325,1.34" fill="blue"/>
            <path id="パス_1822" data-name="パス 1822" d="M161.654,200.917a6.85,6.85,0,0,1-2.039.81,4.677,4.677,0,0,1-1.74.053,3.367,3.367,0,0,1-1.321-.508,2.6,2.6,0,0,1-.824-.866,2.347,2.347,0,0,1-.29-1.159,3.315,3.315,0,0,1,.3-1.35,4.966,4.966,0,0,1,.942-1.376,6.961,6.961,0,0,1,1.625-1.249,5.675,5.675,0,0,1,1.145-.5,5.476,5.476,0,0,1,1.194-.237.216.216,0,0,0,.109-.039.075.075,0,0,0,.032-.119l-1.306-1.952c-.041-.061-.1-.059-.193,0q-.216.147-.434.292a.966.966,0,0,1-.563.2.457.457,0,0,1-.407-.2.4.4,0,0,1,.006-.42,1.014,1.014,0,0,1,.422-.4c.33-.171.586-.309.768-.412s.349-.2.5-.3c.192-.121.367-.239.527-.354s.386-.277.677-.486a1.071,1.071,0,0,1,.554-.209.432.432,0,0,1,.4.164.413.413,0,0,1,.024.437.915.915,0,0,1-.414.415q-.227.134-.455.265l-.031.02q-.106.067-.051.147,2.074,3,4.157,5.991c.037.053.094.056.171.007a3.977,3.977,0,0,0,.325-.232,3.949,3.949,0,0,1,.324-.232,1.115,1.115,0,0,1,.582-.193.473.473,0,0,1,.432.166.452.452,0,0,1,0,.489,1.11,1.11,0,0,1-.47.476l-.731.413c-.258.146-.5.292-.737.438a1.158,1.158,0,0,1-.607.192.469.469,0,0,1-.426-.18c-.012-.016-.023-.033-.035-.05a.089.089,0,0,0-.1-.045.164.164,0,0,0-.1.1,5.579,5.579,0,0,1-.781,1.075,4.891,4.891,0,0,1-1.171.918m-2.836-4.773a4.071,4.071,0,0,0-1.215,1.029,2.672,2.672,0,0,0-.557,1.239,1.767,1.767,0,0,0,.228,1.2,1.855,1.855,0,0,0,.946.808,2.761,2.761,0,0,0,1.392.137,4.74,4.74,0,0,0,2.758-1.525,3.312,3.312,0,0,0,.664-1.17.163.163,0,0,0-.008-.152q-.726-1.08-1.45-2.162a.188.188,0,0,0-.116-.072,4.223,4.223,0,0,0-2.642.668" fill="blue"/>
            <path id="パス_1823" data-name="パス 1823" d="M146.628,204.007q3.028-1.2,5.974-2.588c.115-.054.142-.112.081-.172a2.63,2.63,0,0,0-1.649-.561,4.722,4.722,0,0,0-2.085.421,4.073,4.073,0,0,0-1.9,1.574,1.147,1.147,0,0,1-1,.518q-.4-.014-.5-.257a.364.364,0,0,1,.035-.339,5.249,5.249,0,0,1,1.2-1.355,7.317,7.317,0,0,1,1.732-1.046,7.43,7.43,0,0,1,1.844-.543,6.183,6.183,0,0,1,1.74-.03,4.05,4.05,0,0,1,1.457.46,2.361,2.361,0,0,1,1.174,2.684,4.018,4.018,0,0,1-1.055,1.813,6.476,6.476,0,0,1-2.114,1.431,6.258,6.258,0,0,1-3.43.582,3.139,3.139,0,0,1-2.293-1.414.534.534,0,0,1,.051-.628,1.525,1.525,0,0,1,.744-.55m4.507,1.151a4.2,4.2,0,0,0,1.705-1.243,2,2,0,0,0,.432-1.553l-.012-.021c-.03-.058-.092-.064-.184-.02q-2.661,1.256-5.394,2.358c-.119.048-.148.108-.088.179.771.87,1.964.987,3.541.3" fill="blue"/>
            <path id="パス_1824" data-name="パス 1824" d="M133.835,206.273a.99.99,0,0,1-.6.029.444.444,0,0,1-.339-.3.39.39,0,0,1,.135-.4,1.045,1.045,0,0,1,.522-.265q.565-.109.882-.182c.212-.049.412-.1.6-.152.215-.059.422-.123.619-.191s.473-.161.824-.28a1.093,1.093,0,0,1,.591-.041.427.427,0,0,1,.346.268.41.41,0,0,1-.112.424.936.936,0,0,1-.517.276l-.529.128-.036.01c-.084.024-.116.067-.1.128q.5,1.554,1.01,3.108a1.094,1.094,0,0,0,.543.722,1.472,1.472,0,0,0,1-.027,6.614,6.614,0,0,0,2.984-2.087.163.163,0,0,0,.04-.166q-.554-1.462-1.106-2.926c-.025-.068-.091-.08-.193-.038-.169.065-.338.128-.507.192a.985.985,0,0,1-.593.064.448.448,0,0,1-.357-.278.393.393,0,0,1,.108-.409,1.052,1.052,0,0,1,.5-.295q.558-.143.87-.236c.207-.06.4-.123.591-.186q.315-.108.605-.228c.194-.081.462-.19.8-.33a1.091,1.091,0,0,1,.586-.077.43.43,0,0,1,.363.247.409.409,0,0,1-.084.43.941.941,0,0,1-.5.308l-.537.165c-.106.037-.147.086-.123.146q.817,2.061,1.637,4.121c.024.06.08.075.165.045a3.7,3.7,0,0,0,.343-.141c.107-.051.221-.1.343-.142a1.061,1.061,0,0,1,.569-.053.442.442,0,0,1,.356.243.41.41,0,0,1-.1.429,1.006,1.006,0,0,1-.526.325c-.176.055-.366.112-.568.171s-.406.119-.608.18a1.768,1.768,0,0,1-.967.063.707.707,0,0,1-.552-.4c-.015-.037-.029-.075-.043-.112a.089.089,0,0,0-.1-.064.18.18,0,0,0-.128.075,6.92,6.92,0,0,1-3.154,2.084c-1.774.518-2.886.039-3.315-1.374q-.477-1.556-.953-3.112c-.023-.069-.085-.085-.192-.049l-.517.161" fill="blue"/>
            <path id="パス_1825" data-name="パス 1825" d="M114.838,211.075a.566.566,0,0,1-.386-.453.406.406,0,0,1,.123-.334,7.106,7.106,0,0,1,2.281-1.551,10.343,10.343,0,0,1,2.958-.8,10.459,10.459,0,0,1,2.658,0,8.517,8.517,0,0,1,2.326.63,5.674,5.674,0,0,1,1.761,1.174,3.3,3.3,0,0,1,.917,1.641,3.041,3.041,0,0,1-.161,1.839,4.662,4.662,0,0,1-1.235,1.7,7.744,7.744,0,0,1-2.129,1.329,10.169,10.169,0,0,1-2.8.739,9.06,9.06,0,0,1-4.95-.615c-.763-.331-1.156-.689-1.191-1.063a.678.678,0,0,1,.341-.616,1.809,1.809,0,0,1,.924-.314,1.761,1.761,0,0,1,.993.165.718.718,0,0,1,.44.525.54.54,0,0,1-.132.411c-.059.07-.047.12.038.153a6.249,6.249,0,0,0,3.385.331,7.453,7.453,0,0,0,2.713-.834,4.462,4.462,0,0,0,1.7-1.544,2.546,2.546,0,0,0,.344-1.892,2.751,2.751,0,0,0-1.031-1.637,5.041,5.041,0,0,0-2.064-.936,7.8,7.8,0,0,0-2.687-.1,8,8,0,0,0-2.346.636,4.864,4.864,0,0,0-1.7,1.206.839.839,0,0,1-.623.291.923.923,0,0,1-.468-.073" fill="blue"/>
            <path id="パス_1826" data-name="パス 1826" d="M104.01,209.769a.99.99,0,0,1-.17.007.953.953,0,0,1-.542-.165.443.443,0,0,1-.215-.385.473.473,0,0,1,.291-.4,1.009,1.009,0,0,1,.654-.1c.184.035.368.061.548.077s.35.027.513.037a1.687,1.687,0,0,1,.67.14,1.1,1.1,0,0,1,.45.338.166.166,0,0,0,.225.037,6.315,6.315,0,0,1,1.359-.457,9.271,9.271,0,0,1,1.71-.183,4.46,4.46,0,0,1,2.169.406,1.475,1.475,0,0,1,.928,1.209,1.381,1.381,0,0,1-.386,1.06,3.014,3.014,0,0,1-1.234.764,6.051,6.051,0,0,1-1.91.316,9.673,9.673,0,0,1-1.21-.051,9.287,9.287,0,0,1-1.307-.233.131.131,0,0,1-.038-.006.248.248,0,0,0-.038-.006c-.091,0-.136.032-.135.1,0,.123,0,.247,0,.371a1.33,1.33,0,0,0,.685,1.218,3.064,3.064,0,0,0,1.63.383,4.247,4.247,0,0,0,.6-.054q.3-.05.614-.13c.1-.028.135-.072.093-.135a.59.59,0,0,1-.033-.083.376.376,0,0,1-.014-.084.648.648,0,0,1,.329-.544,1.574,1.574,0,0,1,.882-.266,1.556,1.556,0,0,1,.919.205.712.712,0,0,1,.378.54.572.572,0,0,1-.078.317.973.973,0,0,1-.275.3,4.01,4.01,0,0,1-1.339.65,6.623,6.623,0,0,1-1.747.26,5.951,5.951,0,0,1-3.2-.655,2.125,2.125,0,0,1-1.109-1.939q.013-1.4.028-2.8c0-.072-.044-.109-.132-.11a1.73,1.73,0,0,0-.291.018c-.095.014-.186.024-.273.031m5.532-.048a7.9,7.9,0,0,0-1.736.25,5.319,5.319,0,0,0-1.4.643.168.168,0,0,0-.075.132c0,.088,0,.176,0,.264,0,.055.038.1.115.12a10.029,10.029,0,0,0,.988.26A6.918,6.918,0,0,0,109,211.5a3.444,3.444,0,0,0,1.518-.313.818.818,0,0,0,.512-.782c-.011-.216-.156-.386-.433-.512a2.4,2.4,0,0,0-1.054-.171" fill="blue"/>
            <path id="パス_1827" data-name="パス 1827" d="M85.518,207.692a.974.974,0,0,1-.547-.231.418.418,0,0,1-.158-.413.429.429,0,0,1,.314-.305,1.048,1.048,0,0,1,.593-.016q.561.146.876.223c.212.051.415.1.611.131q.33.06.645.1c.211.025.5.056.873.094a1.036,1.036,0,0,1,.546.224.412.412,0,0,1,.179.394.43.43,0,0,1-.3.329.974.974,0,0,1-.594.024l-.534-.114-.037-.007q-.131-.022-.147.072-.277,1.5-.553,3a1.523,1.523,0,0,0,.066.884.856.856,0,0,0,.538.5c.088.03.177.057.266.079a2.755,2.755,0,0,0,.27.056,5.831,5.831,0,0,0,3.307-.682c.07-.032.108-.071.114-.119l.42-3.046c.008-.063-.044-.1-.155-.118-.187-.016-.375-.034-.563-.052a1.014,1.014,0,0,1-.578-.2.395.395,0,0,1,.119-.723,1.085,1.085,0,0,1,.6-.049c.378.076.675.133.888.173s.414.071.6.094c.234.029.454.049.658.061s.5.027.868.044a1.093,1.093,0,0,1,.569.194.417.417,0,0,1,.213.384.427.427,0,0,1-.282.345,1.009,1.009,0,0,1-.612.055l-.558-.086c-.113-.013-.172.013-.179.076q-.185,1.514-.366,3.028c-.091.739.1,1.19.589,1.348a2.128,2.128,0,0,0,.463.1,4.156,4.156,0,0,0,1.517-.159,8.766,8.766,0,0,0,1.806-.733c.069-.035.1-.076.107-.124q.115-1.52.232-3.04c0-.064-.049-.1-.162-.109l-.565-.021a.986.986,0,0,1-.57-.169.4.4,0,0,1,.066-.73,1.054,1.054,0,0,1,.587-.082c.382.055.681.1.9.125s.423.049.621.062q.336.024.652.025c.212,0,.505,0,.877,0a1.045,1.045,0,0,1,.571.162.421.421,0,0,1,.227.372.427.427,0,0,1-.261.36.985.985,0,0,1-.588.089l-.562-.056c-.113-.007-.171.022-.175.086q-.131,2.186-.259,4.373c0,.064.041.1.132.1.131.008.256.011.374.01s.237-.007.355-.017a1.182,1.182,0,0,1,.643.159.439.439,0,0,1,.26.391.429.429,0,0,1-.293.371,1.212,1.212,0,0,1-.66.086c-.262-.046-.592-.088-.988-.129l-.733-.047a1.141,1.141,0,0,1-.593-.193.429.429,0,0,1-.22-.383l.021-.276a.088.088,0,0,0-.063-.089.173.173,0,0,0-.149.012,6.71,6.71,0,0,1-3.4.629A4.2,4.2,0,0,1,93,214.272a1.783,1.783,0,0,1-1.027-1,.164.164,0,0,0-.23-.066,6.775,6.775,0,0,1-3.683.555,4.47,4.47,0,0,1-1.316-.416,1.948,1.948,0,0,1-.864-.747,2.155,2.155,0,0,1-.293-.9,2.931,2.931,0,0,1,.032-.8l.6-2.994c.013-.063-.037-.1-.148-.127l-.558-.083" fill="blue"/>
            <path id="パス_1828" data-name="パス 1828" d="M75.761,211.053a6.831,6.831,0,0,1-2.007-.883,4.422,4.422,0,0,1-1.226-1.185,3.1,3.1,0,0,1-.512-1.273,2.454,2.454,0,0,1,.1-1.167,2.42,2.42,0,0,1,.691-.992,3.618,3.618,0,0,1,1.241-.7,5.444,5.444,0,0,1,1.7-.273,7.252,7.252,0,0,1,2.063.294,5.675,5.675,0,0,1,1.162.465,5.15,5.15,0,0,1,.992.68.219.219,0,0,0,.1.051c.061.015.1-.005.112-.059q.3-1.122.607-2.244c.019-.069-.026-.114-.135-.133-.172-.035-.345-.071-.517-.108a.952.952,0,0,1-.533-.263.4.4,0,0,1,.2-.7,1.077,1.077,0,0,1,.594.024c.355.117.634.2.836.262s.391.11.567.153c.223.054.431.1.628.132s.473.085.829.149a1.045,1.045,0,0,1,.534.25.4.4,0,0,1,.148.4.433.433,0,0,1-.318.312.97.97,0,0,1-.6-.011l-.51-.142-.035-.008c-.083-.02-.132,0-.148.064q-.885,3.5-1.762,6.993c-.015.062.021.1.111.124a3.892,3.892,0,0,0,.4.074c.124.015.256.04.4.071a1.1,1.1,0,0,1,.539.281.437.437,0,0,1,.166.418.481.481,0,0,1-.372.332,1.182,1.182,0,0,1-.681-.011l-.81-.236c-.286-.083-.564-.158-.833-.223a1.143,1.143,0,0,1-.558-.3.432.432,0,0,1-.152-.423l.015-.058a.082.082,0,0,0-.034-.1.176.176,0,0,0-.141-.005,5.921,5.921,0,0,1-1.351.179,5.085,5.085,0,0,1-1.5-.2m1.725-5.236a4.279,4.279,0,0,0-1.615-.155,2.926,2.926,0,0,0-1.327.451,1.85,1.85,0,0,0-.765.975,1.731,1.731,0,0,0,.026,1.214,2.549,2.549,0,0,0,.842,1.071,4.4,4.4,0,0,0,1.539.735,4.627,4.627,0,0,0,1.5.17,3.624,3.624,0,0,0,1.345-.325.17.17,0,0,0,.11-.109q.334-1.245.67-2.489a.173.173,0,0,0-.024-.13,4.094,4.094,0,0,0-2.305-1.408" fill="blue"/>
            <path id="パス_1829" data-name="パス 1829" d="M62.252,200.294a1.082,1.082,0,0,1-.522-.382.435.435,0,0,1-.062-.463.472.472,0,0,1,.417-.234,1.1,1.1,0,0,1,.625.143l.483.28c.171.1.335.188.49.266a1.661,1.661,0,0,1,.69.569.641.641,0,0,1,.1.65.051.051,0,0,0,.027.077.275.275,0,0,0,.158.015,5.145,5.145,0,0,1,2.988.249,5.686,5.686,0,0,1,1.988,1.237,3.42,3.42,0,0,1,.583.848,1.338,1.338,0,0,1,.027,1.119l-1.2,3.173c-.022.061.009.106.1.137a3.417,3.417,0,0,0,.368.109c.122.03.25.068.386.115a1.064,1.064,0,0,1,.473.308.4.4,0,0,1,.1.411.43.43,0,0,1-.367.258,1.076,1.076,0,0,1-.622-.085c-.281-.114-.5-.2-.663-.263s-.333-.128-.516-.2a1.663,1.663,0,0,1-.779-.533.646.646,0,0,1-.154-.656q.662-1.668,1.326-3.335a.706.706,0,0,0-.021-.634,1.574,1.574,0,0,0-.448-.5,3.5,3.5,0,0,0-.576-.352c-.192-.093-.329-.155-.41-.187a4.166,4.166,0,0,0-1.639-.284,4.765,4.765,0,0,0-1.693.349.235.235,0,0,0-.108.1q-.621,1.353-1.24,2.707c-.026.059,0,.107.086.143.121.051.243.1.37.137s.248.085.368.136a1.049,1.049,0,0,1,.451.339.4.4,0,0,1,.075.417.43.43,0,0,1-.383.234,1.083,1.083,0,0,1-.615-.125c-.273-.133-.488-.236-.645-.307s-.322-.149-.5-.236a1.668,1.668,0,0,1-.742-.584.652.652,0,0,1-.109-.666q.992-2.076,1.985-4.151c.039-.081,0-.139-.124-.176l-.521-.171" fill="blue"/>
            <path id="パス_1830" data-name="パス 1830" d="M56.144,201.327c.09-.163.02-.363-.21-.6a7.15,7.15,0,0,0-.95-.8q-.608-.439-1.271-.945a10.539,10.539,0,0,1-1.2-1.057,3.28,3.28,0,0,1-.739-1.1,1.124,1.124,0,0,1,.114-1.053,1.305,1.305,0,0,1,1-.57,4.068,4.068,0,0,1,1.64.192,10.338,10.338,0,0,1,2.059.888,10.486,10.486,0,0,1,1.236.8,9.481,9.481,0,0,1,1.07.917,3.633,3.633,0,0,1,.685.9.8.8,0,0,1,.055.744.662.662,0,0,1-.578.33,1.543,1.543,0,0,1-.852-.177,1.416,1.416,0,0,1-.657-.6.648.648,0,0,1-.035-.626l.036-.064a.18.18,0,0,1,.052-.055l.012-.021c.024-.043.008-.092-.047-.148q-.281-.27-.653-.565a5.868,5.868,0,0,0-.834-.548,6.405,6.405,0,0,0-1.8-.719c-.512-.1-.84-.033-.984.2-.111.179-.061.4.149.649a6.085,6.085,0,0,0,.9.839q.582.461,1.246.957t1.228,1a3.69,3.69,0,0,1,.831,1.012,1,1,0,0,1,.011.989A1.575,1.575,0,0,1,56,202.8a7.093,7.093,0,0,1-2.907-.974,8.871,8.871,0,0,1-1.588-1.089,3.883,3.883,0,0,1-.89-1.062.809.809,0,0,1-.05-.83c.014-.02.027-.043.042-.067a.166.166,0,0,1,.059-.056.722.722,0,0,1,.59-.171,1.728,1.728,0,0,1,.783.249,1.472,1.472,0,0,1,.658.7.572.572,0,0,1-.068.667l-.012.021c-.025.042-.01.092.047.152a5.127,5.127,0,0,0,.416.318c.146.1.316.2.512.311a5.028,5.028,0,0,0,1.637.608c.484.072.788-.012.916-.246" fill="blue"/>
            <path id="パス_1831" data-name="パス 1831" d="M34.83,183.311a1.207,1.207,0,0,1-.358-.6.417.417,0,0,1,.133-.463l.805-.646a.73.73,0,0,1,.688-.126,1.7,1.7,0,0,1,.8.457q2.822,2.734,5.853,5.191a1.525,1.525,0,0,1,.532.741.593.593,0,0,1-.11.643,2.842,2.842,0,0,1-1.671.7,6,6,0,0,1-2.162-.275,16.3,16.3,0,0,1-2.629-1.059c-.751-.361-1.372-.654-1.867-.868a2.824,2.824,0,0,0-1.24-.291,1.082,1.082,0,0,0-.839.533c-.488.859-.049,1.954,1.36,3.212,1.187,1.056,2.2,1.483,2.985,1.316a.073.073,0,0,0,.047-.024c.026-.031.021-.078-.014-.139A1.05,1.05,0,0,1,37,191.1a.6.6,0,0,1,.136-.373.734.734,0,0,1,.642-.2,1.686,1.686,0,0,1,.933.433,1.6,1.6,0,0,1,.613.876.907.907,0,0,1-.184.791,1.579,1.579,0,0,1-.953.5,4.171,4.171,0,0,1-2.322-.369,8.7,8.7,0,0,1-2.346-1.5,8.792,8.792,0,0,1-1.471-1.677,5.424,5.424,0,0,1-.813-1.806,2.319,2.319,0,0,1,.159-1.605,1.872,1.872,0,0,1,.282-.374,1.528,1.528,0,0,1,1.057-.475,3.814,3.814,0,0,1,1.35.218,13.623,13.623,0,0,1,1.538.619q.8.377,1.626.769a16.245,16.245,0,0,0,1.613.667,5.767,5.767,0,0,0,1.473.322,2.077,2.077,0,0,0,1.209-.25l.016-.019c.042-.05.024-.106-.054-.171q-2.573-2.122-5-4.446c-.083-.079-.151-.093-.2-.04-.076.1-.147.194-.216.292a1.961,1.961,0,0,1-.221.271.452.452,0,0,1-.458.1,1.216,1.216,0,0,1-.575-.338" fill="blue"/>
            <path id="パス_1832" data-name="パス 1832" d="M23.7,181.223a8.186,8.186,0,0,1-1.651-2.917,4.61,4.61,0,0,1-.045-2.649,4.1,4.1,0,0,1,1.507-2.083,4.528,4.528,0,0,1,2.429-.987,4.444,4.444,0,0,1,2.464.556,8.1,8.1,0,0,1,2.348,2.016,8.076,8.076,0,0,1,1.565,2.667,4.462,4.462,0,0,1,.113,2.527A4.749,4.749,0,0,1,31.06,182.6a4.062,4.062,0,0,1-2.261,1.175,4.356,4.356,0,0,1-2.551-.456,7.922,7.922,0,0,1-2.546-2.1m6.273-5.4a4.846,4.846,0,0,0-1.673-1.346,3.247,3.247,0,0,0-1.841-.279,3.8,3.8,0,0,0-1.826.831,3.438,3.438,0,0,0-1.166,1.582,3.337,3.337,0,0,0-.058,1.924,5.063,5.063,0,0,0,1.078,2.005,4.9,4.9,0,0,0,1.758,1.383,3.164,3.164,0,0,0,1.871.244,3.414,3.414,0,0,0,1.725-.911,3.6,3.6,0,0,0,1.266-2.607,4.218,4.218,0,0,0-1.134-2.826" fill="blue"/>
            <path id="パス_1833" data-name="パス 1833" d="M18.731,161.919a1.37,1.37,0,0,1-.187-.722.431.431,0,0,1,.249-.429l.944-.4a.7.7,0,0,1,.694.086,1.838,1.838,0,0,1,.648.712q2,3.646,4.278,7.013a1.694,1.694,0,0,1,.32.9.614.614,0,0,1-.274.612,2.69,2.69,0,0,1-1.791.2,5.973,5.973,0,0,1-2.009-.922,16.748,16.748,0,0,1-2.255-1.86c-.627-.592-1.149-1.078-1.569-1.447a2.892,2.892,0,0,0-1.116-.676,1.015,1.015,0,0,0-.947.281c-.694.718-.558,1.965.469,3.662.867,1.425,1.727,2.156,2.53,2.226a.072.072,0,0,0,.052-.01c.033-.024.041-.072.022-.144a1.142,1.142,0,0,1,0-.558.593.593,0,0,1,.227-.334.7.7,0,0,1,.671-.008,2.192,2.192,0,0,1,1.147,1.776.93.93,0,0,1-.383.737,1.493,1.493,0,0,1-1.048.22,4.168,4.168,0,0,1-2.14-1.064,9.253,9.253,0,0,1-1.866-2.221,9.764,9.764,0,0,1-.977-2.142,6.137,6.137,0,0,1-.31-2.08,2.472,2.472,0,0,1,.573-1.577,1.724,1.724,0,0,1,.369-.292,1.427,1.427,0,0,1,1.141-.154,3.86,3.86,0,0,1,1.24.64,14.569,14.569,0,0,1,1.318,1.1q.672.626,1.363,1.273a16.725,16.725,0,0,0,1.378,1.161,5.85,5.85,0,0,0,1.335.768,1.985,1.985,0,0,0,1.229.111l.02-.014c.053-.038.051-.1-.007-.188q-1.926-2.9-3.652-6.005c-.059-.1-.12-.14-.182-.1-.1.074-.193.152-.285.23a1.872,1.872,0,0,1-.282.205.43.43,0,0,1-.467-.039,1.309,1.309,0,0,1-.465-.521" fill="blue"/>
            <path id="パス_1834" data-name="パス 1834" d="M10.991,158.756c.061.134.124.185.189.151q1.156-.4,2.309-.8c.079-.041.079-.12,0-.239a18.582,18.582,0,0,1-1.348-2.541,10.258,10.258,0,0,1-.861-3.183,4.435,4.435,0,0,1,.286-2.163A2.02,2.02,0,0,1,12.6,148.9a1.555,1.555,0,0,1,1.012-.014,3.481,3.481,0,0,1,1.233.687,7.171,7.171,0,0,1,1.289,1.425,11.647,11.647,0,0,1,1.195,2.2,13.339,13.339,0,0,1,.816,2.512,5.974,5.974,0,0,1,.114,2.1c-.082.572-.252.931-.515,1.076a.546.546,0,0,1-.446.033,1.541,1.541,0,0,1-.9-.907,1.863,1.863,0,0,1-.216-1.041.736.736,0,0,1,.345-.6.6.6,0,0,1,.447-.019c.086.033.123,0,.112-.1a7.368,7.368,0,0,0-.677-2.6,8.792,8.792,0,0,0-.985-1.774,4.1,4.1,0,0,0-1.105-1.086,1.123,1.123,0,0,0-1.013-.172c-1.157.417-1.236,2.059-.072,4.784a11.547,11.547,0,0,0,.753,1.468c.269.439.57.881.907,1.327q.047.072.084.135c.024.043.046.083.064.122a1.425,1.425,0,0,1,.152.7.451.451,0,0,1-.243.432q-1.644.613-3.293,1.214a.743.743,0,0,1-.715-.167,2.182,2.182,0,0,1-.657-.858q-1.448-3.129-2.706-6.428a1.51,1.51,0,0,1-.105-.724.483.483,0,0,1,.243-.428.413.413,0,0,1,.443.131,1.482,1.482,0,0,1,.386.6q1.14,2.993,2.44,5.845" fill="blue"/>
            <path id="パス_1835" data-name="パス 1835" d="M2.654,136.89a11.338,11.338,0,0,1-.195-3.929,5.7,5.7,0,0,1,1.117-2.781,3.668,3.668,0,0,1,2.245-1.32,3.838,3.838,0,0,1,2.58.345,5.022,5.022,0,0,1,1.939,1.971,11.185,11.185,0,0,1,1.2,3.39,11.162,11.162,0,0,1,.234,3.588,5.32,5.32,0,0,1-.991,2.627,4.4,4.4,0,0,1-2.19,1.532,3.5,3.5,0,0,1-2.519-.033,4.663,4.663,0,0,1-2.071-1.848,10.311,10.311,0,0,1-1.353-3.542m7.908-2.068a6.533,6.533,0,0,0-.9-2.318,3.479,3.479,0,0,0-1.509-1.321,3.192,3.192,0,0,0-1.98-.167A3.06,3.06,0,0,0,4.453,132a4.006,4.006,0,0,0-.891,1.96,6.975,6.975,0,0,0,.085,2.665,6.38,6.38,0,0,0,.96,2.383,3.332,3.332,0,0,0,1.558,1.272,2.905,2.905,0,0,0,1.926.013,3.481,3.481,0,0,0,2.254-1.961,5.638,5.638,0,0,0,.217-3.514" fill="blue"/>
            <path id="パス_1836" data-name="パス 1836" d="M4.3,115.13c.019.086.04.127.064.125s.046-.054.067-.158a6.827,6.827,0,0,1,.812-2.5,1.623,1.623,0,0,1,1.3-.94,1.7,1.7,0,0,1,1.411.906,7.875,7.875,0,0,1,1.008,2.509,20.653,20.653,0,0,1,.512,3.663,19.914,19.914,0,0,1-.065,3.639,7.551,7.551,0,0,1-.7,2.561,1.842,1.842,0,0,1-1.287,1.1,1.487,1.487,0,0,1-1.346-.591,5.821,5.821,0,0,1-1.132-2.1c-.057-.177-.1-.179-.134-.008a4.534,4.534,0,0,1-.591,1.617,1.407,1.407,0,0,1-.93.725,1.43,1.43,0,0,1-1.323-.6A5.868,5.868,0,0,1,.91,122.947,14.633,14.633,0,0,1,.35,119.6a15.5,15.5,0,0,1,.135-3.45,7.019,7.019,0,0,1,.779-2.4,1.542,1.542,0,0,1,1.234-.9,1.264,1.264,0,0,1,1.005.6,5.121,5.121,0,0,1,.8,1.687m4.242,3.691a12.116,12.116,0,0,0-.648-3.576c-.349-.889-.784-1.333-1.32-1.31q-.5.022-.871.707a5.811,5.811,0,0,0-.543,1.85,12.656,12.656,0,0,0-.086,2.656,11.48,11.48,0,0,0,.417,2.526,5.567,5.567,0,0,0,.775,1.717c.3.4.606.581.924.535.555-.081.94-.565,1.167-1.452a12.249,12.249,0,0,0,.185-3.653m-5.469,4.628c.413-.057.712-.473.907-1.25a9.929,9.929,0,0,0,.173-2.964,11.413,11.413,0,0,0-.3-2.056,5.013,5.013,0,0,0-.568-1.456c-.229-.36-.47-.536-.726-.521-.423.023-.761.436-1,1.239a8.936,8.936,0,0,0-.253,3.068,9.342,9.342,0,0,0,.344,2.07A4.623,4.623,0,0,0,2.3,123a.849.849,0,0,0,.777.448" fill="blue"/>
          </g>
        </g>
      </g>
    </g>
  </g>
</svg>
