<svg xmlns="http://www.w3.org/2000/svg" xmlns:xlink="http://www.w3.org/1999/xlink" width="118.48" height="40.362" viewBox="0 0 118.48 40.362">
  <defs>
    <linearGradient id="linear-gradient" x1="0.122" y1="0.5" x2="1" y2="0.5" gradientUnits="objectBoundingBox">
      <stop offset="0" stop-color="#e345e6"/>
      <stop offset="0.5" stop-color="#8f9eed"/>
      <stop offset="1" stop-color="#45cbe6"/>
    </linearGradient>
    <linearGradient id="linear-gradient-2" x1="0.478" y1="0.073" x2="1" y2="1" gradientUnits="objectBoundingBox">
      <stop offset="0" stop-color="#e345e6"/>
      <stop offset="0.454" stop-color="#8f9eed"/>
      <stop offset="1" stop-color="#45cbe6"/>
    </linearGradient>
  </defs>
  <g id="グループ_1714" data-name="グループ 1714" transform="translate(-216.999 -107.295)">
    <path id="パス_1780" data-name="パス 1780" d="M.606,10.235H5.613V8.995H2.133c.269-.258.465-.272,1.241-.983.861-.778,1.289-1.183,1.537-1.46a3.421,3.421,0,0,0,.533-.816A1.843,1.843,0,0,0,5.6,4.969a1.7,1.7,0,0,0-.713-1.46,3.31,3.31,0,0,0-1.949-.525,6.083,6.083,0,0,0-1.056.1,8.432,8.432,0,0,0-1.109.286V4.678a6.148,6.148,0,0,1,1.088-.439A3.3,3.3,0,0,1,2.8,4.091a1.426,1.426,0,0,1,.908.258.907.907,0,0,1,.317.725,1.342,1.342,0,0,1-.174.644,3.338,3.338,0,0,1-.57.72c-.322.329-.65.644-1.827,1.784l-.713.687a.391.391,0,0,0-.132.3Zm8.493.138a2.228,2.228,0,0,0,1.954-.921,4.821,4.821,0,0,0,.65-2.772,4.838,4.838,0,0,0-.65-2.776,2.237,2.237,0,0,0-1.959-.921,2.228,2.228,0,0,0-1.954.921,4.838,4.838,0,0,0-.65,2.776,4.814,4.814,0,0,0,.65,2.767A2.24,2.24,0,0,0,9.1,10.374ZM9.094,9.181a.828.828,0,0,1-.787-.6,5.391,5.391,0,0,1-.248-1.9,5.4,5.4,0,0,1,.248-1.908.821.821,0,0,1,1.579,0,5.4,5.4,0,0,1,.248,1.908,5.391,5.391,0,0,1-.248,1.9A.83.83,0,0,1,9.094,9.181ZM9.1,8.041c.1,0,.18-.186.227-.568a6.621,6.621,0,0,0,.048-.782c0-.172-.032-.544-.058-.811-.042-.329-.121-.568-.227-.568s-.169.186-.217.558a6.6,6.6,0,0,0-.053.792c0,.177.037.572.063.816C8.925,7.764,8.983,8.041,9.1,8.041Zm3.19,2.194H17.3V8.995H13.816c.269-.258.465-.272,1.241-.983.861-.778,1.289-1.183,1.537-1.46a3.421,3.421,0,0,0,.533-.816,1.843,1.843,0,0,0,.158-.768,1.7,1.7,0,0,0-.713-1.46,3.31,3.31,0,0,0-1.949-.525,6.083,6.083,0,0,0-1.056.1,8.432,8.432,0,0,0-1.109.286V4.678a6.148,6.148,0,0,1,1.088-.439,3.3,3.3,0,0,1,.935-.148,1.426,1.426,0,0,1,.908.258.907.907,0,0,1,.317.725,1.342,1.342,0,0,1-.174.644,3.338,3.338,0,0,1-.57.72c-.322.329-.65.644-1.827,1.784l-.713.687a.391.391,0,0,0-.132.3Zm8.049.138a3.3,3.3,0,0,0,2.176-.649A2.19,2.19,0,0,0,23.3,7.96a2.3,2.3,0,0,0-.724-1.751,2.777,2.777,0,0,0-1.9-.663,3.637,3.637,0,0,0-.47.029,2.506,2.506,0,0,0-.407.1V4.353h3.021V3.113H18.543V7.092a4.575,4.575,0,0,1,.85-.281,3.847,3.847,0,0,1,.813-.091,1.8,1.8,0,0,1,1.157.329,1.125,1.125,0,0,1,.423.921,1.064,1.064,0,0,1-.428.9,2.056,2.056,0,0,1-1.257.32,4.018,4.018,0,0,1-.919-.1,4.616,4.616,0,0,1-.9-.291v1.269a8.82,8.82,0,0,0,1.056.229A6.875,6.875,0,0,0,20.339,10.374Zm10.427,0a3.419,3.419,0,0,0,2.081-.534,1.858,1.858,0,0,0,.708-1.584,1.969,1.969,0,0,0-.449-1.34,3.15,3.15,0,0,0-1.4-.83l-.671-.229a2.681,2.681,0,0,1-.914-.429.621.621,0,0,1-.222-.491.669.669,0,0,1,.3-.582,1.494,1.494,0,0,1,.861-.205,3.422,3.422,0,0,1,1.03.167,4.206,4.206,0,0,1,1.019.487V3.428a6.235,6.235,0,0,0-1.077-.334,5.31,5.31,0,0,0-1.093-.11,2.934,2.934,0,0,0-1.88.553,1.837,1.837,0,0,0-.687,1.522,1.656,1.656,0,0,0,.417,1.2,4.09,4.09,0,0,0,1.6.854l.766.262a1.452,1.452,0,0,1,.613.377.813.813,0,0,1,.211.563.774.774,0,0,1-.317.658,1.468,1.468,0,0,1-.9.239,3.64,3.64,0,0,1-1.141-.2,5.219,5.219,0,0,1-1.209-.6V9.873a5.348,5.348,0,0,0,1.141.377A5.448,5.448,0,0,0,30.766,10.374Zm3.644-.138h1.558V7.569h.581a4.092,4.092,0,0,0,2.35-.525,1.97,1.97,0,0,0,.713-1.7,1.97,1.97,0,0,0-.713-1.7,4.092,4.092,0,0,0-2.35-.525H34.411Zm1.558-3.85V4.3h.639a1.835,1.835,0,0,1,1.077.234.955.955,0,0,1,.306.811.955.955,0,0,1-.306.811,1.835,1.835,0,0,1-1.077.234Zm4.294,3.85h4.912V8.995H41.821V7.13h3.037V5.889H41.821V4.353h3.354V3.113H40.263Zm8.963.138a4.1,4.1,0,0,0,.866-.086,3.669,3.669,0,0,0,.776-.258V8.465a2.867,2.867,0,0,1-.776.487,2.045,2.045,0,0,1-.787.157,1.472,1.472,0,0,1-1.283-.615,3.111,3.111,0,0,1-.438-1.813,3.165,3.165,0,0,1,.438-1.822,1.48,1.48,0,0,1,1.283-.611,2.019,2.019,0,0,1,.782.153,2.762,2.762,0,0,1,.782.491V3.328A3.267,3.267,0,0,0,50.1,3.07a4.19,4.19,0,0,0-.871-.086,3.075,3.075,0,0,0-2.424.949,4.027,4.027,0,0,0-.84,2.748,4.014,4.014,0,0,0,.84,2.743A3.075,3.075,0,0,0,49.226,10.374Zm2.741-.138h4.7V8.995H55.094V4.353h1.569V3.113h-4.7v1.24h1.569V8.995H51.967Zm5.107,0h1.558l.475-1.76h2.086l.486,1.76h1.558L61.11,3.113H59.2ZM59.42,7.316,60.154,4.4l.739,2.915Zm4.511,2.919h4.891V8.995H65.488V3.113H63.93Zm9.952,0h1.442l.84-3.74.9,3.74h1.452l.908-7.122H78.049l-.444,5.228-.792-3.382H75.52l-.681,3.382-.565-5.228H72.91Zm5.757,0h4.912V8.995H81.2V7.13h3.037V5.889H81.2V4.353h3.354V3.113H79.639Zm5.614,0h2.54a4.111,4.111,0,0,0,2.234-.463,1.664,1.664,0,0,0,.687-1.488,1.809,1.809,0,0,0-.454-1.312A2.073,2.073,0,0,0,88.9,6.424a1.8,1.8,0,0,0,1.146-.448A1.463,1.463,0,0,0,90.435,4.9a1.534,1.534,0,0,0-.66-1.35A3.527,3.527,0,0,0,87.794,3.1h-2.54ZM86.759,5.88V4.225h1.035a1.313,1.313,0,0,1,.84.2.743.743,0,0,1,.254.634.709.709,0,0,1-.248.625,1.33,1.33,0,0,1-.845.2Zm0,3.229V7h1.035a1.649,1.649,0,0,1,1.03.253,1.01,1.01,0,0,1,.312.83.957.957,0,0,1-.3.8,1.783,1.783,0,0,1-1.046.229Zm8.88,1.126H97.2V7.569h.581a4.092,4.092,0,0,0,2.35-.525,1.97,1.97,0,0,0,.713-1.7,1.97,1.97,0,0,0-.713-1.7,4.092,4.092,0,0,0-2.35-.525H95.639ZM97.2,6.386V4.3h.639a1.835,1.835,0,0,1,1.077.234.955.955,0,0,1,.306.811.955.955,0,0,1-.306.811,1.835,1.835,0,0,1-1.077.234Zm3.581,3.85h1.558l.475-1.76H104.9l.486,1.76h1.558l-2.128-7.122h-1.907Zm2.345-2.919.734-2.915.739,2.915Zm7.125,3.058a3.663,3.663,0,0,0,1.178-.181,3.254,3.254,0,0,0,.988-.525V6.4h-2.43V7.588h1.067v1.36a.712.712,0,0,1-.29.119,1.662,1.662,0,0,1-.417.043,1.389,1.389,0,0,1-1.236-.615,3.28,3.28,0,0,1-.423-1.822,3.134,3.134,0,0,1,.438-1.822,1.535,1.535,0,0,1,1.331-.6,2.108,2.108,0,0,1,1.68.768V3.457a3.594,3.594,0,0,0-.861-.353,3.636,3.636,0,0,0-.961-.119,3.044,3.044,0,0,0-2.4.949,3.974,3.974,0,0,0-.845,2.738,4.057,4.057,0,0,0,.834,2.743A2.957,2.957,0,0,0,110.248,10.374Zm2.926-.138h4.912V8.995h-3.354V7.13h3.037V5.889h-3.037V4.353h3.354V3.113h-4.912Z" transform="translate(216.892 136.783)" stroke="rgba(0,0,0,0)" stroke-width="1" fill="url(#linear-gradient)"/>
    <path id="パス_799" data-name="パス 799" d="M2-23a4.961,4.961,0,0,1,.4-2,5.061,5.061,0,0,1,1.06-1.58,4.846,4.846,0,0,1,1.56-1.04A4.737,4.737,0,0,1,6.88-28H30.12v6.72H8.92v6.44h18v6.72h-18V0H2ZM28.6-6.72h9.08V-21.28H28.6V-28H53.76v6.72H44.6V-6.72h9.16V0H28.6Zm51.08,0V-21.28H59.76V-6.72ZM52.84-23a4.961,4.961,0,0,1,.4-2,5.061,5.061,0,0,1,1.06-1.58,4.846,4.846,0,0,1,1.56-1.04A4.737,4.737,0,0,1,57.72-28H81.44a5.25,5.25,0,0,1,2.04.4,5.191,5.191,0,0,1,1.64,1.06,4.952,4.952,0,0,1,1.08,1.56,4.534,4.534,0,0,1,.4,1.86V-5a4.961,4.961,0,0,1-.4,2,5.06,5.06,0,0,1-1.06,1.58A4.846,4.846,0,0,1,83.58-.38,4.737,4.737,0,0,1,81.72,0H58a5.25,5.25,0,0,1-2.04-.4,5.191,5.191,0,0,1-1.64-1.06,4.952,4.952,0,0,1-1.08-1.56,4.534,4.534,0,0,1-.4-1.86Zm33.64,0a4.961,4.961,0,0,1,.4-2,5.061,5.061,0,0,1,1.06-1.58,4.846,4.846,0,0,1,1.56-1.04A4.737,4.737,0,0,1,91.36-28h26.28v6.72H93.4V-6.72h24.24V0h-26A5.25,5.25,0,0,1,89.6-.4a5.191,5.191,0,0,1-1.64-1.06,4.952,4.952,0,0,1-1.08-1.56,4.534,4.534,0,0,1-.4-1.86Z" transform="translate(217.338 136.295)" fill="url(#linear-gradient-2)"/>
    <g id="グループ_1017" data-name="グループ 1017" transform="translate(-5629.502 -458.705)">
      <path id="パス_798" data-name="パス 798" d="M2,15.357a5.645,5.645,0,0,1,.4-2.143,5.46,5.46,0,0,1,1.06-1.693,4.838,4.838,0,0,1,1.56-1.114A4.466,4.466,0,0,1,6.88,10H30.12v7.2L8.92,18.67V23.1h18v8.8h-18V40H2ZM30.12,31.285h8.96V18.67H30.12L30,10H55.16v8.67H46V31.285h9.16V40H30Z" transform="translate(5847 556)" fill="#45cbe6"/>
      <path id="パス_797" data-name="パス 797" d="M2,15a4.882,4.882,0,0,1,.408-2,5.056,5.056,0,0,1,1.08-1.58A5.053,5.053,0,0,1,6.972,10H30.649v6.72H9.05v6.44H27.389v6.72H9.05V38H2ZM30.23,31.28h8.95V16.72H30.527V10H56.16v6.72H46.828V31.28H56.16V38H30.23Z" transform="translate(5845 558)" fill="#a571d9"/>
      <path id="パス_796" data-name="パス 796" d="M2,15a4.882,4.882,0,0,1,.408-2,5.056,5.056,0,0,1,1.08-1.58A5.053,5.053,0,0,1,6.972,10H30.649v6.72H9.05v6.44H27.389v6.72H9.05V38H2ZM30.23,31.28h8.95V16.72H30.527V10H56.16v6.72H46.828V31.28H56.16V38H30.23Z" transform="translate(5845 556)" fill="#e345e6"/>
      <path id="パス_817" data-name="パス 817" d="M2-23a4.961,4.961,0,0,1,.4-2,5.061,5.061,0,0,1,1.06-1.58,4.846,4.846,0,0,1,1.56-1.04A4.737,4.737,0,0,1,6.88-28H30.12v6.72H8.92v6.44h18v6.72h-18V0H2ZM30-6.72h9.08V-21.28H30V-28H55.16v6.72H46V-6.72h9.16V0H30Z" transform="translate(5846 595)" fill="#fff"/>
    </g>
    <path id="パス_1782" data-name="パス 1782" d="M2-23a4.961,4.961,0,0,1,.4-2,5.061,5.061,0,0,1,1.06-1.58,4.846,4.846,0,0,1,1.56-1.04A4.737,4.737,0,0,1,6.88-28H30.12v6.72H8.92v6.44h18v6.72h-18V0H2ZM28.6-6.72h9.08V-21.28H28.6V-28H53.76v6.72H44.6V-6.72h9.16V0H28.6Zm51.08,0V-21.28H59.76V-6.72ZM52.84-23a4.961,4.961,0,0,1,.4-2,5.061,5.061,0,0,1,1.06-1.58,4.846,4.846,0,0,1,1.56-1.04A4.737,4.737,0,0,1,57.72-28H81.44a5.25,5.25,0,0,1,2.04.4,5.191,5.191,0,0,1,1.64,1.06,4.952,4.952,0,0,1,1.08,1.56,4.534,4.534,0,0,1,.4,1.86V-5a4.961,4.961,0,0,1-.4,2,5.06,5.06,0,0,1-1.06,1.58A4.846,4.846,0,0,1,83.58-.38,4.737,4.737,0,0,1,81.72,0H58a5.25,5.25,0,0,1-2.04-.4,5.191,5.191,0,0,1-1.64-1.06,4.952,4.952,0,0,1-1.08-1.56,4.534,4.534,0,0,1-.4-1.86Zm33.64,0a4.961,4.961,0,0,1,.4-2,5.061,5.061,0,0,1,1.06-1.58,4.846,4.846,0,0,1,1.56-1.04A4.737,4.737,0,0,1,91.36-28h26.28v6.72H93.4V-6.72h24.24V0h-26A5.25,5.25,0,0,1,89.6-.4a5.191,5.191,0,0,1-1.64-1.06,4.952,4.952,0,0,1-1.08-1.56,4.534,4.534,0,0,1-.4-1.86Z" transform="translate(217.338 136.295)" fill="url(#linear-gradient-2)"/>
    <g id="グループ_1713" data-name="グループ 1713" transform="translate(-5629.502 -458.705)">
      <path id="パス_798-2" data-name="パス 798" d="M2,15.357a5.645,5.645,0,0,1,.4-2.143,5.46,5.46,0,0,1,1.06-1.693,4.838,4.838,0,0,1,1.56-1.114A4.466,4.466,0,0,1,6.88,10H30.12v7.2L8.92,18.67V23.1h18v8.8h-18V40H2ZM30.12,31.285h8.96V18.67H30.12L30,10H55.16v8.67H46V31.285h9.16V40H30Z" transform="translate(5847 556)" fill="#45cbe6"/>
      <path id="パス_797-2" data-name="パス 797" d="M2,15a4.882,4.882,0,0,1,.408-2,5.056,5.056,0,0,1,1.08-1.58A5.053,5.053,0,0,1,6.972,10H30.649v6.72H9.05v6.44H27.389v6.72H9.05V38H2ZM30.23,31.28h8.95V16.72H30.527V10H56.16v6.72H46.828V31.28H56.16V38H30.23Z" transform="translate(5845 558)" fill="#a571d9"/>
      <path id="パス_796-2" data-name="パス 796" d="M2,15a4.882,4.882,0,0,1,.408-2,5.056,5.056,0,0,1,1.08-1.58A5.053,5.053,0,0,1,6.972,10H30.649v6.72H9.05v6.44H27.389v6.72H9.05V38H2ZM30.23,31.28h8.95V16.72H30.527V10H56.16v6.72H46.828V31.28H56.16V38H30.23Z" transform="translate(5845 556)" fill="#e345e6"/>
      <path id="パス_817-2" data-name="パス 817" d="M2-23a4.961,4.961,0,0,1,.4-2,5.061,5.061,0,0,1,1.06-1.58,4.846,4.846,0,0,1,1.56-1.04A4.737,4.737,0,0,1,6.88-28H30.12v6.72H8.92v6.44h18v6.72h-18V0H2ZM30-6.72h9.08V-21.28H30V-28H55.16v6.72H46V-6.72h9.16V0H30Z" transform="translate(5846 595)" fill="#fff"/>
    </g>
  </g>
</svg>
