<svg xmlns="http://www.w3.org/2000/svg" xmlns:xlink="http://www.w3.org/1999/xlink" width="117.907" height="40.359" viewBox="0 0 117.907 40.359">
  <defs>
    <linearGradient id="linear-gradient" x1="0.122" y1="0.5" x2="1" y2="0.5" gradientUnits="objectBoundingBox">
      <stop offset="0" stop-color="#e345e6"/>
      <stop offset="0.5" stop-color="#8f9eed"/>
      <stop offset="1" stop-color="#45cbe6"/>
    </linearGradient>
    <linearGradient id="linear-gradient-2" x1="0.478" y1="0.073" x2="1" y2="1" gradientUnits="objectBoundingBox">
      <stop offset="0" stop-color="#e345e6"/>
      <stop offset="0.454" stop-color="#8f9eed"/>
      <stop offset="1" stop-color="#45cbe6"/>
    </linearGradient>
  </defs>
  <g id="グループ_1715" data-name="グループ 1715" transform="translate(-92.499 -108.295)">
    <path id="パス_1783" data-name="パス 1783" d="M.606,10.334H5.567V9.077H2.119c.267-.261.461-.276,1.23-1,.853-.788,1.277-1.2,1.523-1.48A3.477,3.477,0,0,0,5.4,5.774,1.906,1.906,0,0,0,5.557,5a1.736,1.736,0,0,0-.706-1.48,3.225,3.225,0,0,0-1.931-.532,5.9,5.9,0,0,0-1.047.1,8.2,8.2,0,0,0-1.1.29V4.7a6.012,6.012,0,0,1,1.078-.445,3.2,3.2,0,0,1,.926-.15,1.39,1.39,0,0,1,.9.261.928.928,0,0,1,.314.735,1.385,1.385,0,0,1-.173.653,3.374,3.374,0,0,1-.565.73c-.319.334-.644.653-1.811,1.808l-.706.7a.4.4,0,0,0-.131.3Zm8.415.14a2.19,2.19,0,0,0,1.936-.933A4.975,4.975,0,0,0,11.6,6.732a4.993,4.993,0,0,0-.644-2.814,2.2,2.2,0,0,0-1.941-.933,2.19,2.19,0,0,0-1.936.933,4.993,4.993,0,0,0-.644,2.814,4.968,4.968,0,0,0,.644,2.8A2.2,2.2,0,0,0,9.021,10.474ZM9.016,9.266a.823.823,0,0,1-.78-.6A5.582,5.582,0,0,1,7.99,6.732,5.6,5.6,0,0,1,8.236,4.8.809.809,0,0,1,9.8,4.8a5.6,5.6,0,0,1,.246,1.934A5.582,5.582,0,0,1,9.8,8.661.824.824,0,0,1,9.016,9.266ZM9.021,8.11c.1,0,.178-.189.225-.575a6.865,6.865,0,0,0,.047-.793c0-.174-.031-.551-.058-.822-.042-.334-.12-.575-.225-.575s-.167.189-.215.566a6.837,6.837,0,0,0-.052.8c0,.179.037.58.063.827C8.849,7.829,8.906,8.11,9.021,8.11Zm3.161,2.224h4.961V9.077H13.695c.267-.261.461-.276,1.23-1,.853-.788,1.277-1.2,1.523-1.48a3.477,3.477,0,0,0,.529-.827A1.906,1.906,0,0,0,17.133,5a1.736,1.736,0,0,0-.706-1.48A3.225,3.225,0,0,0,14.5,2.984a5.9,5.9,0,0,0-1.047.1,8.2,8.2,0,0,0-1.1.29V4.7a6.012,6.012,0,0,1,1.078-.445,3.2,3.2,0,0,1,.926-.15,1.39,1.39,0,0,1,.9.261.928.928,0,0,1,.314.735,1.385,1.385,0,0,1-.173.653,3.374,3.374,0,0,1-.565.73c-.319.334-.644.653-1.811,1.808l-.706.7a.4.4,0,0,0-.131.3Zm7.975.14a3.223,3.223,0,0,0,2.156-.658,2.242,2.242,0,0,0,.78-1.789,2.358,2.358,0,0,0-.717-1.775A2.714,2.714,0,0,0,20.5,5.581a3.523,3.523,0,0,0-.466.029,2.437,2.437,0,0,0-.4.1V4.372h2.993V3.115H18.378V7.148a4.463,4.463,0,0,1,.843-.285,3.73,3.73,0,0,1,.806-.092,1.758,1.758,0,0,1,1.146.334,1.151,1.151,0,0,1,.419.933,1.087,1.087,0,0,1-.424.914,2,2,0,0,1-1.245.324,3.9,3.9,0,0,1-.911-.1,4.5,4.5,0,0,1-.895-.295v1.286a8.569,8.569,0,0,0,1.047.232A6.661,6.661,0,0,0,20.158,10.474Zm10.332,0a3.33,3.33,0,0,0,2.062-.542,1.9,1.9,0,0,0,.7-1.605,2.025,2.025,0,0,0-.445-1.359,3.11,3.11,0,0,0-1.387-.841L30.756,5.9a2.633,2.633,0,0,1-.905-.435.635.635,0,0,1-.22-.5.682.682,0,0,1,.3-.59,1.454,1.454,0,0,1,.853-.208,3.321,3.321,0,0,1,1.02.169,4.127,4.127,0,0,1,1.01.493V3.434A6.075,6.075,0,0,0,31.745,3.1a5.147,5.147,0,0,0-1.083-.111,2.862,2.862,0,0,0-1.863.561,1.88,1.88,0,0,0-.68,1.542A1.7,1.7,0,0,0,28.532,6.3a4.027,4.027,0,0,0,1.58.866l.759.266a1.434,1.434,0,0,1,.607.382.835.835,0,0,1,.209.571.791.791,0,0,1-.314.667,1.431,1.431,0,0,1-.895.242,3.533,3.533,0,0,1-1.13-.2,5.123,5.123,0,0,1-1.2-.6V9.967a5.215,5.215,0,0,0,1.13.382A5.281,5.281,0,0,0,30.489,10.474Zm3.611-.14h1.544v-2.7h.576A3.982,3.982,0,0,0,38.548,7.1a2.017,2.017,0,0,0,.706-1.726,2.017,2.017,0,0,0-.706-1.726,3.982,3.982,0,0,0-2.329-.532H34.1Zm1.544-3.9V4.314h.633a1.785,1.785,0,0,1,1.068.237.979.979,0,0,1,.3.822.979.979,0,0,1-.3.822,1.785,1.785,0,0,1-1.068.237Zm4.255,3.9h4.867V9.077H41.442V7.186h3.009V5.929H41.442V4.372h3.323V3.115H39.9Zm8.881.14a3.977,3.977,0,0,0,.858-.087,3.578,3.578,0,0,0,.769-.261V8.54a2.831,2.831,0,0,1-.769.493,1.987,1.987,0,0,1-.78.16,1.447,1.447,0,0,1-1.272-.624,3.21,3.21,0,0,1-.434-1.837,3.266,3.266,0,0,1,.434-1.847,1.455,1.455,0,0,1,1.272-.619,1.961,1.961,0,0,1,.774.155,2.727,2.727,0,0,1,.774.5V3.333a3.186,3.186,0,0,0-.764-.261,4.061,4.061,0,0,0-.863-.087,3.012,3.012,0,0,0-2.4.962,4.146,4.146,0,0,0-.832,2.785,4.132,4.132,0,0,0,.832,2.78A3.012,3.012,0,0,0,48.779,10.474Zm2.716-.14h4.652V9.077H54.593v-4.7h1.554V3.115H51.5V4.372h1.554v4.7H51.5Zm5.06,0H58.1L58.57,8.55h2.067l.481,1.784h1.544L60.554,3.115H58.664Zm2.323-2.959.727-2.954.733,2.954Zm4.469,2.959h4.846V9.077h-3.3V3.115H63.348Zm9.861,0h1.429l.832-3.791.89,3.791H77.8l.9-7.219H77.338l-.44,5.3-.785-3.428H74.831l-.675,3.428-.56-5.3h-1.35Zm5.7,0H83.78V9.077H80.457V7.186h3.009V5.929H80.457V4.372H83.78V3.115H78.913Zm5.563,0h2.517a4,4,0,0,0,2.214-.469,1.7,1.7,0,0,0,.68-1.509,1.859,1.859,0,0,0-.45-1.33,2.03,2.03,0,0,0-1.35-.556,1.767,1.767,0,0,0,1.136-.455,1.5,1.5,0,0,0,.387-1.088,1.567,1.567,0,0,0-.654-1.368,3.431,3.431,0,0,0-1.962-.455H84.476Zm1.491-4.415V4.242h1.026a1.279,1.279,0,0,1,.832.2.761.761,0,0,1,.251.643.726.726,0,0,1-.246.633,1.294,1.294,0,0,1-.837.2Zm0,3.274V7.056h1.026a1.606,1.606,0,0,1,1.02.256,1.036,1.036,0,0,1,.309.841.982.982,0,0,1-.293.808,1.735,1.735,0,0,1-1.036.232Zm8.8,1.141h1.544v-2.7h.576A3.982,3.982,0,0,0,99.214,7.1a2.017,2.017,0,0,0,.706-1.726,2.017,2.017,0,0,0-.706-1.726,3.982,3.982,0,0,0-2.329-.532H94.766Zm1.544-3.9V4.314h.633a1.786,1.786,0,0,1,1.068.237.979.979,0,0,1,.3.822.979.979,0,0,1-.3.822,1.786,1.786,0,0,1-1.068.237Zm3.548,3.9H101.4l.471-1.784h2.067l.481,1.784h1.544l-2.109-7.219h-1.889Zm2.323-2.959.727-2.954.733,2.954Zm7.06,3.1a3.554,3.554,0,0,0,1.167-.184,3.2,3.2,0,0,0,.979-.532V6.451h-2.407v1.2h1.057V9.029a.7.7,0,0,1-.288.121,1.612,1.612,0,0,1-.413.044,1.367,1.367,0,0,1-1.225-.624,3.386,3.386,0,0,1-.419-1.847,3.234,3.234,0,0,1,.434-1.847,1.507,1.507,0,0,1,1.319-.609,2.14,2.14,0,0,1,.921.193,2.191,2.191,0,0,1,.743.585V3.463a3.489,3.489,0,0,0-1.805-.479,2.982,2.982,0,0,0-2.381.962,4.09,4.09,0,0,0-.837,2.776,4.176,4.176,0,0,0,.827,2.78A2.9,2.9,0,0,0,109.24,10.474Zm2.9-.14h4.867V9.077h-3.323V7.186h3.009V5.929h-3.009V4.372h3.323V3.115H112.14Z" transform="translate(92.899 137.68)" fill="#010440" stroke="rgba(0,0,0,0)" stroke-width="1"/>
    <path id="パス_1781" data-name="パス 1781" d="M.606,10.334H5.579V9.077H2.122c.268-.261.462-.276,1.233-1,.855-.788,1.28-1.2,1.526-1.48a3.476,3.476,0,0,0,.53-.827A1.9,1.9,0,0,0,5.568,5a1.735,1.735,0,0,0-.708-1.48,3.238,3.238,0,0,0-1.935-.532,5.922,5.922,0,0,0-1.049.1,8.236,8.236,0,0,0-1.1.29V4.7a6.034,6.034,0,0,1,1.081-.445,3.216,3.216,0,0,1,.928-.15,1.4,1.4,0,0,1,.9.261A.927.927,0,0,1,4,5.1a1.382,1.382,0,0,1-.173.653,3.374,3.374,0,0,1-.566.73c-.32.334-.645.653-1.815,1.808l-.708.7a.4.4,0,0,0-.131.3Zm8.434.14a2.2,2.2,0,0,0,1.941-.933,4.966,4.966,0,0,0,.645-2.809,4.984,4.984,0,0,0-.645-2.814,2.206,2.206,0,0,0-1.946-.933,2.2,2.2,0,0,0-1.941.933A4.984,4.984,0,0,0,6.45,6.732a4.959,4.959,0,0,0,.645,2.8A2.209,2.209,0,0,0,9.041,10.474ZM9.036,9.266a.825.825,0,0,1-.782-.6,5.57,5.57,0,0,1-.247-1.929A5.583,5.583,0,0,1,8.254,4.8a.811.811,0,0,1,1.568,0,5.583,5.583,0,0,1,.247,1.934,5.57,5.57,0,0,1-.247,1.929A.826.826,0,0,1,9.036,9.266ZM9.041,8.11c.1,0,.178-.189.226-.575a6.849,6.849,0,0,0,.047-.793c0-.174-.031-.551-.058-.822-.042-.334-.121-.575-.226-.575s-.168.189-.215.566a6.821,6.821,0,0,0-.052.8c0,.179.037.58.063.827C8.868,7.829,8.925,8.11,9.041,8.11Zm3.168,2.224h4.972V9.077H13.725c.268-.261.462-.276,1.233-1,.855-.788,1.28-1.2,1.526-1.48a3.476,3.476,0,0,0,.53-.827A1.9,1.9,0,0,0,17.171,5a1.735,1.735,0,0,0-.708-1.48,3.238,3.238,0,0,0-1.935-.532,5.922,5.922,0,0,0-1.049.1,8.236,8.236,0,0,0-1.1.29V4.7a6.034,6.034,0,0,1,1.081-.445,3.216,3.216,0,0,1,.928-.15,1.4,1.4,0,0,1,.9.261A.927.927,0,0,1,15.6,5.1a1.382,1.382,0,0,1-.173.653,3.375,3.375,0,0,1-.566.73c-.32.334-.645.653-1.815,1.808l-.708.7a.4.4,0,0,0-.131.3Zm7.994.14a3.236,3.236,0,0,0,2.161-.658,2.24,2.24,0,0,0,.782-1.789,2.356,2.356,0,0,0-.719-1.775,2.724,2.724,0,0,0-1.883-.672,3.539,3.539,0,0,0-.467.029,2.447,2.447,0,0,0-.4.1V4.372h3V3.115H18.419V7.148a4.48,4.48,0,0,1,.844-.285,3.747,3.747,0,0,1,.808-.092A1.765,1.765,0,0,1,21.22,7.1a1.15,1.15,0,0,1,.42.933,1.086,1.086,0,0,1-.425.914,2.011,2.011,0,0,1-1.248.324,3.913,3.913,0,0,1-.913-.1,4.518,4.518,0,0,1-.9-.295v1.286a8.606,8.606,0,0,0,1.049.232A6.692,6.692,0,0,0,20.2,10.474Zm10.356,0a3.344,3.344,0,0,0,2.067-.542,1.9,1.9,0,0,0,.7-1.605,2.022,2.022,0,0,0-.446-1.359,3.118,3.118,0,0,0-1.39-.841L30.826,5.9a2.641,2.641,0,0,1-.907-.435.635.635,0,0,1-.22-.5.682.682,0,0,1,.3-.59,1.46,1.46,0,0,1,.855-.208,3.336,3.336,0,0,1,1.023.169,4.14,4.14,0,0,1,1.012.493V3.434a6.1,6.1,0,0,0-1.07-.338,5.17,5.17,0,0,0-1.086-.111,2.873,2.873,0,0,0-1.867.561,1.878,1.878,0,0,0-.682,1.542A1.7,1.7,0,0,0,28.6,6.3a4.039,4.039,0,0,0,1.584.866l.761.266a1.438,1.438,0,0,1,.608.382.834.834,0,0,1,.21.571.791.791,0,0,1-.315.667,1.436,1.436,0,0,1-.9.242,3.549,3.549,0,0,1-1.133-.2,5.14,5.14,0,0,1-1.2-.6V9.967a5.236,5.236,0,0,0,1.133.382A5.3,5.3,0,0,0,30.558,10.474Zm3.619-.14h1.547v-2.7H36.3A4,4,0,0,0,38.636,7.1a2.015,2.015,0,0,0,.708-1.726,2.015,2.015,0,0,0-.708-1.726A4,4,0,0,0,36.3,3.115H34.178Zm1.547-3.9V4.314h.635a1.793,1.793,0,0,1,1.07.237.978.978,0,0,1,.3.822.978.978,0,0,1-.3.822,1.793,1.793,0,0,1-1.07.237Zm4.264,3.9h4.878V9.077H41.537V7.186h3.016V5.929H41.537V4.372h3.331V3.115H39.99Zm8.9.14a4,4,0,0,0,.86-.087,3.593,3.593,0,0,0,.771-.261V8.54a2.838,2.838,0,0,1-.771.493,2,2,0,0,1-.782.16,1.452,1.452,0,0,1-1.275-.624,3.2,3.2,0,0,1-.435-1.837,3.26,3.26,0,0,1,.435-1.847,1.459,1.459,0,0,1,1.275-.619,1.97,1.97,0,0,1,.776.155,2.734,2.734,0,0,1,.776.5V3.333a3.2,3.2,0,0,0-.766-.261,4.08,4.08,0,0,0-.865-.087,3.023,3.023,0,0,0-2.408.962,4.139,4.139,0,0,0-.834,2.785,4.125,4.125,0,0,0,.834,2.78A3.023,3.023,0,0,0,48.891,10.474Zm2.722-.14h4.663V9.077H54.718v-4.7h1.558V3.115H51.613V4.372h1.558v4.7H51.613Zm5.072,0h1.547L58.7,8.55h2.072l.483,1.784h1.547L60.693,3.115H58.8Zm2.329-2.959.729-2.954.734,2.954Zm4.48,2.959h4.857V9.077h-3.31V3.115H63.494Zm9.884,0h1.432l.834-3.791.892,3.791h1.442l.9-7.219H77.516l-.441,5.3-.787-3.428H75l-.677,3.428-.561-5.3H72.412Zm5.717,0h4.878V9.077H80.642V7.186h3.016V5.929H80.642V4.372h3.331V3.115H79.095Zm5.576,0h2.523a4.015,4.015,0,0,0,2.219-.469,1.7,1.7,0,0,0,.682-1.509,1.857,1.857,0,0,0-.451-1.33,2.037,2.037,0,0,0-1.353-.556,1.773,1.773,0,0,0,1.138-.455,1.5,1.5,0,0,0,.388-1.088A1.566,1.566,0,0,0,89.16,3.56a3.446,3.446,0,0,0-1.967-.455H84.67Zm1.495-4.415V4.242h1.028a1.284,1.284,0,0,1,.834.2.76.76,0,0,1,.252.643.725.725,0,0,1-.247.633,1.3,1.3,0,0,1-.839.2Zm0,3.274V7.056h1.028a1.613,1.613,0,0,1,1.023.256,1.035,1.035,0,0,1,.309.841.981.981,0,0,1-.294.808,1.742,1.742,0,0,1-1.039.232Zm8.819,1.141h1.547v-2.7h.577A4,4,0,0,0,99.442,7.1a2.015,2.015,0,0,0,.708-1.726,2.015,2.015,0,0,0-.708-1.726,4,4,0,0,0-2.334-.532H94.984Zm1.547-3.9V4.314h.635a1.793,1.793,0,0,1,1.07.237.978.978,0,0,1,.3.822.978.978,0,0,1-.3.822,1.793,1.793,0,0,1-1.07.237Zm3.556,3.9h1.547l.472-1.784h2.072l.483,1.784h1.547L104.1,3.115H102.2Zm2.329-2.959.729-2.954.734,2.954Zm7.076,3.1a3.57,3.57,0,0,0,1.17-.184,3.21,3.21,0,0,0,.981-.532V6.451H109.23v1.2h1.06V9.029a.7.7,0,0,1-.288.121,1.619,1.619,0,0,1-.414.044,1.371,1.371,0,0,1-1.227-.624,3.38,3.38,0,0,1-.42-1.847,3.228,3.228,0,0,1,.435-1.847,1.512,1.512,0,0,1,1.322-.609,2.149,2.149,0,0,1,.923.193,2.2,2.2,0,0,1,.745.585V3.463a3.5,3.5,0,0,0-1.81-.479,2.992,2.992,0,0,0-2.387.962,4.084,4.084,0,0,0-.839,2.776,4.17,4.17,0,0,0,.829,2.78A2.908,2.908,0,0,0,109.492,10.474Zm2.906-.14h4.878V9.077h-3.331V7.186h3.016V5.929h-3.016V4.372h3.331V3.115H112.4Z" transform="translate(92.397 137.68)" stroke="rgba(0,0,0,0)" stroke-width="1" fill="url(#linear-gradient)"/>
    <g id="logo-light" transform="translate(81.438 91)">
      <g id="グループ_1021" data-name="グループ 1021" transform="translate(0.721 -0.064)">
        <path id="パス_818" data-name="パス 818" d="M79.68-6.72V-21.28H59.76V-6.72ZM52.84-23a4.961,4.961,0,0,1,.4-2,5.061,5.061,0,0,1,1.06-1.58,4.846,4.846,0,0,1,1.56-1.04A4.737,4.737,0,0,1,57.72-28H81.44a5.25,5.25,0,0,1,2.04.4,5.191,5.191,0,0,1,1.64,1.06,4.952,4.952,0,0,1,1.08,1.56,4.534,4.534,0,0,1,.4,1.86V-5a4.961,4.961,0,0,1-.4,2,5.06,5.06,0,0,1-1.06,1.58A4.846,4.846,0,0,1,83.58-.38,4.737,4.737,0,0,1,81.72,0H58a5.25,5.25,0,0,1-2.04-.4,5.191,5.191,0,0,1-1.64-1.06,4.952,4.952,0,0,1-1.08-1.56,4.534,4.534,0,0,1-.4-1.86Zm33.64,0a4.961,4.961,0,0,1,.4-2,5.061,5.061,0,0,1,1.06-1.58,4.846,4.846,0,0,1,1.56-1.04A4.737,4.737,0,0,1,91.36-28h26.28v6.72H93.4V-6.72h24.24V0h-26A5.25,5.25,0,0,1,89.6-.4a5.191,5.191,0,0,1-1.64-1.06,4.952,4.952,0,0,1-1.08-1.56,4.534,4.534,0,0,1-.4-1.86Z" transform="translate(10.38 46.564)" fill="#010440"/>
        <path id="パス_799" data-name="パス 799" d="M2-23a4.961,4.961,0,0,1,.4-2,5.061,5.061,0,0,1,1.06-1.58,4.846,4.846,0,0,1,1.56-1.04A4.737,4.737,0,0,1,6.88-28H30.12v6.72H8.92v6.44h18v6.72h-18V0H2ZM28.6-6.72h9.08V-21.28H28.6V-28H53.76v6.72H44.6V-6.72h9.16V0H28.6Zm51.08,0V-21.28H59.76V-6.72ZM52.84-23a4.961,4.961,0,0,1,.4-2,5.061,5.061,0,0,1,1.06-1.58,4.846,4.846,0,0,1,1.56-1.04A4.737,4.737,0,0,1,57.72-28H81.44a5.25,5.25,0,0,1,2.04.4,5.191,5.191,0,0,1,1.64,1.06,4.952,4.952,0,0,1,1.08,1.56,4.534,4.534,0,0,1,.4,1.86V-5a4.961,4.961,0,0,1-.4,2,5.06,5.06,0,0,1-1.06,1.58A4.846,4.846,0,0,1,83.58-.38,4.737,4.737,0,0,1,81.72,0H58a5.25,5.25,0,0,1-2.04-.4,5.191,5.191,0,0,1-1.64-1.06,4.952,4.952,0,0,1-1.08-1.56,4.534,4.534,0,0,1-.4-1.86Zm33.64,0a4.961,4.961,0,0,1,.4-2,5.061,5.061,0,0,1,1.06-1.58,4.846,4.846,0,0,1,1.56-1.04A4.737,4.737,0,0,1,91.36-28h26.28v6.72H93.4V-6.72h24.24V0h-26A5.25,5.25,0,0,1,89.6-.4a5.191,5.191,0,0,1-1.64-1.06,4.952,4.952,0,0,1-1.08-1.56,4.534,4.534,0,0,1-.4-1.86Z" transform="translate(10.18 46.359)" fill="url(#linear-gradient-2)"/>
        <g id="グループ_1017" data-name="グループ 1017" transform="translate(-5836.66 -548.641)">
          <path id="パス_798" data-name="パス 798" d="M2,15.357a5.645,5.645,0,0,1,.4-2.143,5.46,5.46,0,0,1,1.06-1.693,4.838,4.838,0,0,1,1.56-1.114A4.466,4.466,0,0,1,6.88,10H30.12v7.2L8.92,18.67V23.1h18v8.8h-18V40H2ZM30.12,31.285h8.96V18.67H30.12L30,10H55.16v8.67H46V31.285h9.16V40H30Z" transform="translate(5847 556)" fill="#45cbe6"/>
          <path id="パス_797" data-name="パス 797" d="M2,15a4.882,4.882,0,0,1,.408-2,5.056,5.056,0,0,1,1.08-1.58A5.053,5.053,0,0,1,6.972,10H30.649v6.72H9.05v6.44H27.389v6.72H9.05V38H2ZM30.23,31.28h8.95V16.72H30.527V10H56.16v6.72H46.828V31.28H56.16V38H30.23Z" transform="translate(5845 558)" fill="#a571d9"/>
          <path id="パス_796" data-name="パス 796" d="M2,15a4.882,4.882,0,0,1,.408-2,5.056,5.056,0,0,1,1.08-1.58A5.053,5.053,0,0,1,6.972,10H30.649v6.72H9.05v6.44H27.389v6.72H9.05V38H2ZM30.23,31.28h8.95V16.72H30.527V10H56.16v6.72H46.828V31.28H56.16V38H30.23Z" transform="translate(5845 556)" fill="#e345e6"/>
          <path id="パス_817" data-name="パス 817" d="M2-23a4.961,4.961,0,0,1,.4-2,5.061,5.061,0,0,1,1.06-1.58,4.846,4.846,0,0,1,1.56-1.04A4.737,4.737,0,0,1,6.88-28H30.12v6.72H8.92v6.44h18v6.72h-18V0H2ZM30-6.72h9.08V-21.28H30V-28H55.16v6.72H46V-6.72h9.16V0H30Z" transform="translate(5846 595)" fill="#fff"/>
        </g>
      </g>
    </g>
  </g>
</svg>
